<?xml version="1.0" standalone="no"?>
<!DOCTYPE svg PUBLIC "-//W3C//DTD SVG 1.1//EN" "http://www.w3.org/Graphics/SVG/1.1/DTD/svg11.dtd" >
<svg xmlns="http://www.w3.org/2000/svg" xmlns:xlink="http://www.w3.org/1999/xlink" version="1.1">
<metadata>
Created by FontForge 20161003 at Mon Feb 12 10:51:53 2018
 By www-data
Copyright 
</metadata>
<defs>
<font id="CopperplateBold" horiz-adv-x="1404" >
  <font-face 
    font-family="CopperplateBold"
    font-weight="7"
    font-stretch="normal"
    units-per-em="1354"
    panose-1="0 0 0 0 0 0 0 0 0 0"
    ascent="1083"
    descent="-271"
    x-height="1104"
    cap-height="1104"
    bbox="-70 -356 2173 1560"
    underline-thickness="20"
    underline-position="-141"
    unicode-range="U+0020-25CA"
  />
<missing-glyph horiz-adv-x="1104" 
d="M69 0v1104h966v-1104h-966zM966 69v966h-828v-966h828z" />
    <glyph glyph-name=".notdef" horiz-adv-x="1104" 
d="M69 0v1104h966v-1104h-966zM966 69v966h-828v-966h828z" />
    <glyph glyph-name=".null" unicode="&#xd7;" horiz-adv-x="0" 
 />
    <glyph glyph-name=".null" unicode="&#x141;" horiz-adv-x="0" 
 />
    <glyph glyph-name=".null" unicode="&#xfd;" horiz-adv-x="0" 
 />
    <glyph glyph-name="nonmarkingreturn" horiz-adv-x="555" 
 />
    <glyph glyph-name="space" unicode=" " horiz-adv-x="555" 
 />
    <glyph glyph-name="exclam" unicode="!" horiz-adv-x="490" 
d="M453 1087h-50l-107 -667h50v-18h-193v18h50l-110 667h-49v17h409v-17zM396 132q0 -60 -42 -102t-102 -42t-102 42t-42 102t42 102t102 42t102 -42t42 -102z" />
    <glyph glyph-name="quotedbl" unicode="&#x22;" horiz-adv-x="552" 
d="M516 1104l-28 -320h-132l-36 320h196zM236 1104l-28 -320h-132l-36 320h196z" />
    <glyph glyph-name="numbersign" unicode="#" horiz-adv-x="1011" 
d="M972 408h-260v-242h-134v242h-160v-242h-134v242h-242v132h242v166h-242v132h242v268h134v-268h160v268h134v-268h260v-132h-260v-166h260v-132zM578 540v166h-160v-166h160z" />
    <glyph glyph-name="dollar" unicode="$" horiz-adv-x="1148" 
d="M1107 331q0 -130 -104 -219q-92 -78 -241 -107l-25 -4v-228h-111v218h-102v-218h-108v232q-51 13 -94 24q-55 15 -94 26q-51 14 -82 24q-15 5 -82 27l-19 -47l-23 8l113 293l21 -8l-18 -50q62 -40 128 -65q38 -15 73 -24.5t75 -14.5v285l-62 19q-117 35 -181 89
q-78 65 -91 166q-1 6 -1.5 15.5t-0.5 18.5q0 108 85 192q79 77 200 106l52 12v180h107v-171h104v170h110v-182q43 -4 72 -9.5t75.5 -18t79.5 -24.5q25 -9 74 -32l23 45l20 -11l-122 -263l-21 11l18 39q-32 20 -53.5 30.5t-54 20t-56 13.5t-54.5 4v-258l51 -10
q138 -28 222 -100q97 -83 97 -204zM627 661v255l-54 5l-51 -1v-246q31 0 57.5 -4.5t47.5 -8.5zM416 692v212l-37 -10q-36 -8 -58.5 -33.5t-22.5 -60.5q0 -70 65 -91zM881 302q5 49 -34 85q-33 31 -91 49l-20 6v-251l26 4q49 8 81.5 35t37.5 72zM626 179v282l-105 11v-290z
" />
    <glyph glyph-name="percent" unicode="%" horiz-adv-x="1261" 
d="M1224 261q0 -116 -79 -196t-200 -80q-124 0 -202 76t-78 190q0 118 78 198t201 80q115 0 197.5 -77.5t82.5 -190.5zM1055 1083h-48l-624 -1071h37v-12h-214v12h39l626 1071h-40v15h224v-15zM597 836q0 -116 -79 -196t-200 -80q-124 0 -202 76t-78 190q0 118 78 198
t201 80q115 0 197.5 -77.5t82.5 -190.5zM1091 255q0 76 -37 128q-41 58 -113 58q-65 0 -106 -58q-37 -53 -37 -126q0 -78 31 -124q38 -56 115 -56q66 0 108 55q39 51 39 123zM464 830q0 76 -37 128q-41 58 -113 58q-65 0 -106 -58q-37 -53 -37 -126q0 -78 31 -124
q38 -56 115 -56q66 0 108 55q39 51 39 123z" />
    <glyph glyph-name="ampersand" unicode="&#x26;" horiz-adv-x="1320" 
d="M1285 13q-6 -5 -11 -7q-14 -7 -33 -9q-49 0 -82 7t-58 24l-170 107l-69 -42q-94 -58 -175.5 -83t-185.5 -25q-190 0 -322 86q-140 92 -140 237q0 21 3 42q15 104 100 189q71 71 162 104l-52 45q-37 32 -51 72t-14 96q0 114 121 183q108 62 255 62q135 0 233 -64
q108 -70 108 -180q0 -69 -35 -130q-30 -53 -77 -88l-32 -24q38 -30 55.5 -44.5t30.5 -26.5q26 -24 45.5 -46.5t39.5 -49.5l140 164q54 52 98 86.5t113 76.5l-2 -279h-13v26q-33 -11 -65.5 -37.5t-66.5 -67.5q-25 -30 -51 -77q-10 -21 -20 -41l111 -63q19 -11 41 -15
q3 0 30 -4q5 -1 25 4v28h14v-236zM730 825q-5 56 -54.5 87.5t-113.5 31.5q-68 0 -118.5 -36t-50.5 -92q0 -59 51 -95q47 -33 114 -33q65 0 116 34q56 37 56 93v10zM801 291l-80 93q-51 59 -108 95q-67 42 -130 42q-72 0 -127 -51.5t-55 -121.5q0 -77 60 -125t145 -48
q48 0 92 7t70 24z" />
    <glyph glyph-name="quotesingle" unicode="'" horiz-adv-x="268" 
d="M232 1104l-28 -320h-132l-36 320h196z" />
    <glyph glyph-name="parenleft" unicode="(" horiz-adv-x="553" 
d="M548 -200h-252q-93 70 -172 280q-86 230 -86 465q0 163 45 337q37 145 93 260q50 103 79 117h256v-20h-47q-108 -169 -157 -360q-42 -164 -42 -353q0 -178 55 -350q59 -185 181 -356h47v-20z" />
    <glyph glyph-name="parenright" unicode=")" horiz-adv-x="549" 
d="M502 545q0 -237 -85 -465q-78 -209 -173 -280h-252v20h47q119 168 180 356q56 174 56 350q0 193 -41 353q-48 188 -158 360h-47v20h256q28 -13 78 -116q56 -115 93 -260q46 -178 46 -338z" />
    <glyph glyph-name="asterisk" unicode="*" horiz-adv-x="680" 
d="M645 832l-251 -45l172 -190l-113 -76l-108 232l-131 -231l-106 88l201 180l-270 52l46 122l237 -121l-41 257h129l-34 -254l235 118z" />
    <glyph glyph-name="plus" unicode="+" horiz-adv-x="854" 
d="M819 352h-347v-352h-86v353h-345v87h343v349h85v-349h350v-88z" />
    <glyph glyph-name="comma" unicode="," horiz-adv-x="386" 
d="M335 50q0 -112 -47 -188q-39 -63 -106 -97q-23 -12 -52.5 -18.5t-50.5 -6.5l-7 51q17 0 38.5 8t39.5 21q31 22 49 48.5t18 52.5q0 38 -41 57q-26 11 -51 22q-35 16 -60 50q-28 38 -28 81q0 54 36 96q42 49 109 49q75 0 114 -56t39 -170z" />
    <glyph glyph-name="hyphen" unicode="-" horiz-adv-x="627" 
d="M592 428h-554v222h554v-222z" />
    <glyph glyph-name="period" unicode="." horiz-adv-x="369" 
d="M327 132q0 -60 -42 -102t-102 -42t-102 42t-42 102t42 102t102 42t102 -42t42 -102z" />
    <glyph glyph-name="slash" unicode="/" horiz-adv-x="939" 
d="M898 1087h-50l-622 -1069h49v-18h-236v18h50l623 1069h-49v17h235v-17z" />
    <glyph glyph-name="zero" unicode="0" horiz-adv-x="1202" 
d="M1162 550q0 -232 -162.5 -398.5t-397.5 -166.5q-255 0 -413 164q-151 157 -151 392t160 404q164 173 401 173q232 0 397.5 -168.5t165.5 -399.5zM893 558q0 152 -70 253q-80 115 -221 115q-138 0 -222 -120q-76 -109 -76 -262q0 -150 71 -252q81 -116 224 -116
q147 0 226 121q68 104 68 261z" />
    <glyph glyph-name="one" unicode="1" horiz-adv-x="576" 
d="M534 0h-358v18h50v769q-16 1 -44 2t-31 1q-23 0 -61 -12q-12 -4 -33 -12v-39h-18v234h18v-38l62 21q31 13 54 26.5t51 34.5v81h-49v18h358v-18h-48v-1068h49v-18z" />
    <glyph glyph-name="two" unicode="2" horiz-adv-x="1125" 
d="M1089 -49h-17v49h-1015v-49h-17v49q0 74 67 184.5t161 184.5q17 14 180 117q148 94 224 161q110 97 110 168q0 56 -57 84.5t-146 28.5q-78 0 -159.5 -24t-141.5 -64l-72 -48l31 -43l-15 -12l-181 219l17 12l30 -35l62 40q115 76 234 110.5t239 34.5q185 0 294 -70
q121 -77 121 -223q0 -98 -62 -182q-47 -64 -149 -138q-43 -31 -115 -77q-59 -37 -118.5 -75.5t-103.5 -72.5q-30 -24 -67 -74q-12 -17 -32 -47h681v49h17v-257z" />
    <glyph glyph-name="three" unicode="3" horiz-adv-x="1134" 
d="M1095 314q0 -152 -154 -244q-142 -85 -350 -85q-97 0 -172.5 13.5t-155.5 41.5q-54 19 -163 66l-37 16l-21 -44l-16 10l116 258l20 -7l-23 -48l41 -22q109 -58 212 -86.5t206 -28.5q98 0 161 31q77 38 77 112q0 91 -72 143q-66 48 -161 48h-112v-50h-17v263h17v-48h126
q70 0 121 45q55 49 55 123q0 56 -51 93t-140 37q-97 0 -205 -31q-77 -22 -157 -59l-62 -32l23 -43l-16 -13l-122 222l18 12l25 -48q45 29 112 61q86 41 176 66q114 32 209 32q184 0 306 -66q139 -75 139 -210q0 -75 -22 -128q-26 -63 -117 -148q89 -31 139 -104
q47 -68 47 -148z" />
    <glyph glyph-name="four" unicode="4" horiz-adv-x="1216" 
d="M1177 165h-17v49h-177v-196h49v-18h-358v18h49v197h-667v-48h-17v192l583 728h-49v17h458v-18h-49v-700h178v49h17v-270zM724 386v552l-449 -552h449z" />
    <glyph glyph-name="five" unicode="5" horiz-adv-x="1148" 
d="M1114 393q1 -7 1 -15v-15q0 -169 -169 -278q-154 -100 -358 -100q-136 0 -239 24q-117 27 -237 95l-48 27l-26 -36l-18 12l184 274l17 -10l-26 -41l68 -43q79 -50 189 -75q84 -19 164 -19q90 0 155 48q70 52 70 133q0 86 -85 135q-74 43 -178 43q-53 0 -87 -6t-71 -30
l-43 -27l38 -27l-12 -15l-330 205l12 18l38 -23v440h-49v17h957v49h17v-300h-17v49h-672v-215q71 33 130 42.5t156 9.5q180 0 311 -88q144 -97 158 -258z" />
    <glyph glyph-name="six" unicode="6" horiz-adv-x="1138" 
d="M1104 1078l-149 -280l-19 10l25 45l-67 31q-52 24 -106.5 32.5t-113.5 8.5q-134 0 -233 -65q-114 -74 -114 -198l-2 -42l38 19q85 42 153.5 57.5t167.5 15.5q165 0 288 -99q130 -104 130 -259q0 -152 -141 -260.5t-353 -108.5q-237 0 -395 144q-169 154 -169 407
q0 176 107 316q96 126 253 198q148 68 298 68q65 0 128.5 -12t153.5 -38l79 -23l24 41zM852 379q0 81 -78 124q-67 37 -166 37q-92 0 -166 -53q-79 -57 -79 -140q0 -76 80 -123q73 -43 170 -43q96 0 163 49q76 56 76 149z" />
    <glyph glyph-name="seven" unicode="7" horiz-adv-x="1127" 
d="M1090 906l-474 -888h50v-18h-396v18h49l496 883h-751v-49h-17v301h17v-49h1008v49h18v-247z" />
    <glyph glyph-name="eight" unicode="8" horiz-adv-x="1148" 
d="M1110 319q0 -157 -177 -251q-156 -83 -358 -83q-217 0 -366 81q-169 92 -169 253q0 94 64 163q58 62 158 96q-81 54 -102 77q-55 60 -55 150q0 149 151 236q133 77 313 77t319 -72q162 -84 162 -224q0 -18 -3 -36q-10 -72 -56 -128q-42 -52 -104 -80q101 -34 158 -95
q65 -70 65 -164zM784 803q0 65 -68 107q-61 37 -139 37q-80 0 -133 -25q-64 -30 -77 -93q-3 -15 -3 -30q0 -62 55.5 -99.5t149.5 -37.5q97 0 153 33q62 37 62 108zM833 306q1 6 1 17q0 78 -82 128q-74 45 -169 45q-110 0 -185 -39q-90 -47 -90 -134q0 -78 84 -119
q70 -34 170 -34q144 0 210 41q54 33 61 95z" />
    <glyph glyph-name="nine" unicode="9" horiz-adv-x="1143" 
d="M1106 564q0 -268 -199 -429q-185 -150 -460 -150q-131 0 -281 46l-79 24l-23 -40l-16 8l147 276l17 -8l-23 -45l67 -31q54 -24 110.5 -34t110.5 -10q130 0 226 64q107 71 124 196l8 56l-48 -26q-81 -44 -150.5 -59t-170.5 -15q-170 0 -292 96q-130 102 -130 257
q0 171 157 279q144 99 338 99q239 0 398 -146q169 -155 169 -408zM788 754q0 84 -84 131q-72 40 -176 40q-96 0 -162 -53q-72 -58 -72 -153q0 -81 87 -123q72 -35 176 -35q92 0 159 52q72 56 72 141z" />
    <glyph glyph-name="colon" unicode=":" horiz-adv-x="372" 
d="M327 748q0 -60 -42 -102t-102 -42t-102 42t-42 102t42 102t102 42t102 -42t42 -102zM327 132q0 -60 -42 -102t-102 -42t-102 42t-42 102t42 102t102 42t102 -42t42 -102z" />
    <glyph glyph-name="semicolon" unicode=";" horiz-adv-x="395" 
d="M327 748q0 -60 -42 -102t-102 -42t-102 42t-42 102t42 102t102 42t102 -42t42 -102zM335 50q0 -112 -47 -188q-39 -63 -106 -97q-23 -12 -52.5 -18.5t-50.5 -6.5l-7 51q17 0 38.5 8t39.5 21q31 22 49 48.5t18 52.5q0 38 -41 57q-26 11 -51 22q-35 16 -60 50
q-28 38 -28 81q0 54 36 96q42 49 109 49q75 0 114 -56t39 -170z" />
    <glyph glyph-name="less" unicode="&#x3c;" horiz-adv-x="689" 
d="M649 67l-609 260v104l609 259v-117l-460 -194l460 -195v-117z" />
    <glyph glyph-name="equal" unicode="=" horiz-adv-x="689" 
d="M649 453h-609v108h609v-108zM649 196h-609v108h609v-108z" />
    <glyph glyph-name="greater" unicode="&#x3e;" horiz-adv-x="689" 
d="M649 327l-609 -260v117l456 195l-456 194v117l609 -260v-103z" />
    <glyph glyph-name="question" unicode="?" horiz-adv-x="780" 
d="M738 848q0 -63 -33 -123q-12 -21 -44 -71l-84 -129q-9 -14 -17.5 -27.5t-12.5 -28.5q-9 -29 -9 -51h49v-18h-320v18h50q0 17 21 66q17 40 39 81q44 67 68 106q45 74 45 121q0 42 -33 74q-39 36 -100 36q-32 0 -60 -11.5t-52 -38.5l-32 -35l24 -24l-11 -10l-200 184l12 12
l27 -27l53 46q71 60 137.5 85.5t157.5 25.5q119 0 217 -70q108 -77 108 -191zM564 132q0 -60 -42 -102t-102 -42t-102 42t-42 102t42 102t102 42t102 -42t42 -102z" />
    <glyph glyph-name="at" unicode="@" horiz-adv-x="1150" 
d="M1080 626q0 -156 -107 -280q-100 -116 -212 -116q-42 0 -80 28t-59 72q-29 -40 -63 -66q-46 -34 -95 -34q-84 0 -144 74.5t-60 180.5q0 153 94 262t226 109q81 0 117 -61l12 49h175l-111 -446q-2 -9 -5 -25.5t-3 -25.5q0 -23 10 -23q64 0 132 84q78 96 78 218
q0 163 -104.5 264.5t-281.5 101.5q-175 0 -303 -127q-133 -132 -133 -322q0 -185 127.5 -316.5t308.5 -131.5q125 0 219 55q87 51 135 138h108q-29 -66 -75 -120q-63 -74 -148 -116q-106 -52 -239 -52q-223 0 -378 164q-151 160 -151 379q0 211 146 371q154 169 383 169
q219 0 353 -133q128 -127 128 -324zM655 680q0 30 -15 58q-18 34 -45 34q-69 0 -115 -98.5t-46 -238.5q0 -50 7 -72q12 -39 47 -39q61 0 116 129q51 120 51 227z" />
    <glyph glyph-name="A" unicode="A" horiz-adv-x="1383" 
d="M1354 0h-375v18h49l-79 219h-537l-87 -219h49v-18h-340v17h50l408 1070h-49v17h501v-17h-49l409 -1070h50v-17zM903 373l-225 571l-217 -571h442z" />
    <glyph glyph-name="B" unicode="B" horiz-adv-x="1239" 
d="M1202 332q0 -158 -138 -249q-126 -83 -319 -83h-703v18h49v1067h-53v19h724q176 0 281 -56q120 -64 120 -191q0 -104 -38 -167q-41 -69 -140 -111q94 -18 155.5 -85t61.5 -162zM911 790q0 49 -42.5 75.5t-98.5 26.5h-456v-236h445q59 0 105.5 37.5t46.5 96.5zM957 358
q0 60 -63 93q-55 29 -130 29h-449v-268h461q71 0 124 39q57 42 57 107z" />
    <glyph glyph-name="C" unicode="C" horiz-adv-x="1315" 
d="M1307 109l-17 -9l-24 33l-150 -69q-78 -36 -168.5 -57.5t-177.5 -21.5q-311 0 -512 150q-210 157 -210 414q0 248 208 411q202 158 494 158q75 0 142 -9t134 -30l194 -60l21 39l17 -8l-153 -284l-16 9l20 40l-174 72q-89 37 -188 37q-186 0 -310 -100
q-132 -106 -132 -281q0 -159 128 -254q121 -90 311 -90q55 0 103.5 8.5t91.5 29.5l192 94l-26 38l16 10z" />
    <glyph glyph-name="D" unicode="D" horiz-adv-x="1325" 
d="M1294 548q0 -234 -158 -391t-383 -157h-707v19h49v1065h-49v20h665q245 0 408 -145q175 -155 175 -411zM1018 565q0 149 -86 227q-79 72 -215 72h-358l1 -652h385q119 0 198 109q75 103 75 244z" />
    <glyph glyph-name="E" unicode="E" horiz-adv-x="1148" 
d="M1111 842h-20v49h-775v-235h508v49h20v-276h-19v51h-511v-268h777v50h19v-311h-18v49h-1051v19h50v1065h-50v20h1049v50h21v-312z" />
    <glyph glyph-name="F" unicode="F" horiz-adv-x="1143" 
d="M1105 842h-21v50h-742v-236h526v51h19v-277h-21v50h-514v-459h51v-21h-366v21h49v1063h-49v20h1050v49h18v-311z" />
    <glyph glyph-name="G" unicode="G" horiz-adv-x="1433" 
d="M1394 141l-189 -75q-100 -40 -218 -60.5t-235 -20.5q-307 0 -496 131q-212 147 -212 426q0 275 216 434q193 142 472 142q77 0 155.5 -13t153.5 -37l186 -60l20 39l16 -7l-150 -284l-17 9l24 44l-101 47q-128 60 -270 60q-185 0 -310 -94q-137 -103 -137 -278
q0 -167 128 -269q125 -99 317 -99q75 0 145 14.5t146 46.5l45 19v162h-319v-50h-21v282h21v-49h627v-22h-50v-434l46 16z" />
    <glyph glyph-name="H" unicode="H" horiz-adv-x="1338" 
d="M1297 0h-364v18h49v463h-628v-463h51v-18h-368v18h48v1069h-48v17h367v-18h-50v-382h628v382h-50v18h365v-18h-50v-1068h50v-18z" />
    <glyph glyph-name="I" unicode="I" horiz-adv-x="506" 
d="M450 0h-365v18h49v1069h-49v17h365v-17h-49v-1069h49v-18z" />
    <glyph glyph-name="J" unicode="J" horiz-adv-x="980" 
d="M941 1087h-50v-692q0 -181 -96 -289q-107 -121 -310 -121q-49 0 -104.5 13.5t-120.5 36.5l-198 71l-21 -46l-18 9l114 290l21 -7l-20 -50l150 -63q45 -19 106 -33q50 -11 84 -11q81 0 115.5 42t34.5 152v698h-49v17h362v-17z" />
    <glyph glyph-name="K" unicode="K" horiz-adv-x="1347" 
d="M1304 0h-396v17h50l-340 531l-263 -232v-300h50v-16h-364v16h50v1071h-50v17h363v-17h-49v-471l535 471h-51v17h432v-17h-45l-424 -375l451 -696h51v-16z" />
    <glyph glyph-name="L" unicode="L" horiz-adv-x="1200" 
d="M1158 -46h-17v46h-1100v16h50v1071h-50v17h356v-17h-46v-875h790v46h17v-304z" />
    <glyph glyph-name="M" unicode="M" horiz-adv-x="1447" 
d="M1406 0h-358v18h49l1 841l-406 -812l-365 806v-836h50v-17h-336v18h50v1069h-50v17h493v-17h-49l219 -516l236 516h-50v17h516v-17h-50v-1069h50v-18z" />
    <glyph glyph-name="N" unicode="N" horiz-adv-x="1325" 
d="M1288 0h-324v18h50l-681 784v-784h50v-18h-337v18h50v1069h-50v17h407v-17h-49l594 -688l1 688h-49v17h338v-17h-49v-1069h49v-18z" />
    <glyph glyph-name="O" unicode="O" 
d="M1367 558q0 -256 -207 -420q-193 -153 -457 -153q-265 0 -452 144q-208 160 -208 429q0 246 206 408q193 152 454 152t457 -155q207 -164 207 -405zM1092 558q0 160 -117 263q-111 98 -272 98q-159 0 -271.5 -103.5t-112.5 -257.5q0 -156 107 -265q111 -113 277 -113
q175 0 282 102t107 276z" />
    <glyph glyph-name="P" unicode="P" horiz-adv-x="1175" 
d="M1138 781q0 -157 -123 -235q-104 -66 -271 -66h-411v-462h49v-18h-341v18h50v1068h-50v18h698q170 0 274 -69q125 -83 125 -254zM894 786q0 62 -41 98t-100 36l-420 1v-265h419q76 0 109 32t33 98z" />
    <glyph glyph-name="Q" unicode="Q" horiz-adv-x="1389" 
d="M1348 540q0 -125 -73 -248q-65 -109 -165 -183l157 -177l-143 -112l-171 213q-68 -29 -125 -38.5t-141 -9.5q-256 0 -447 151q-202 159 -202 394q0 253 199 424q191 164 455 164q263 0 454 -158q202 -167 202 -420zM1084 540q0 155 -109 262q-113 111 -283 111
q-176 0 -284 -114q-102 -108 -102 -269q0 -147 123 -255q116 -102 258 -102q33 0 67.5 8.5t74.5 26.5q-24 35 -48 71q-28 38 -65 59q-49 26 -101 33q11 11 21 18t45 24q20 9 45 9q42 0 90 -21.5t86 -56.5l62 -58q62 44 91 108.5t29 145.5z" />
    <glyph glyph-name="R" unicode="R" horiz-adv-x="1266" 
d="M1225 0h-378v18h51l-287 414h-260v-414h50v-18h-364v18h49v1068h-49v18h698q133 0 226 -25q117 -31 179 -103q73 -84 73 -224q0 -111 -70 -189q-76 -85 -218 -114l-44 -9l293 -422h51v-18zM951 766q-5 52 -41.5 89t-86.5 37h-473v-267h419q78 0 130.5 35t52.5 93
q-1 9 -1 13z" />
    <glyph glyph-name="S" unicode="S" horiz-adv-x="1255" 
d="M1216 366q0 -177 -165 -282q-156 -99 -404 -99q-115 0 -240 25t-284 76l-53 17l-22 -43l-23 10l133 292l23 -10l-22 -53l171 -63q74 -27 153 -38t154 -11q148 0 223 40t75 126q0 58 -52.5 88.5t-150.5 30.5l-184 -1q-225 0 -342 79q-124 84 -124 251q0 143 133 232
q127 85 318 85q111 0 197.5 -10.5t197.5 -38.5l201 -51l24 39l18 -9l-148 -260l-18 10l26 48l-171 47q-119 33 -262 33q-112 0 -183 -34.5t-71 -90.5q0 -60 56.5 -87t156.5 -27h169q224 0 357 -86.5t133 -234.5z" />
    <glyph glyph-name="T" unicode="T" horiz-adv-x="1230" 
d="M1191 841h-17v51h-424v-875h50v-17h-363v17h50l-1 875h-426v-49h-19v310h19l1 -49h1113v49h17v-312z" />
    <glyph glyph-name="U" unicode="U" horiz-adv-x="1306" 
d="M1269 1087h-51v-647q0 -195 -173 -329q-162 -126 -369 -126q-220 0 -391 112q-191 125 -191 322v668h-48v17h357v-17h-50v-628q0 -115 99 -190q93 -71 220 -71q111 0 198 79q91 83 91 196v614h-50v17h358v-17z" />
    <glyph glyph-name="V" unicode="V" horiz-adv-x="1370" 
d="M1344 1087h-51l-464 -1070h47v-17h-384v17h50l-457 1070h-50v17h383v-17h-50l337 -791l344 791h-50v17h345v-17z" />
    <glyph glyph-name="W" unicode="W" horiz-adv-x="1973" 
d="M1945 1087h-50l-352 -1070h50v-17h-389v17h50l-253 819l-276 -819h50v-17h-389v17h50l-348 1070h-50v17h367v-17h-51l243 -733l249 733h-50v17h457v-17h-50l213 -724l238 724h-50v17h341v-17z" />
    <glyph glyph-name="X" unicode="X" horiz-adv-x="1370" 
d="M1335 0h-425v17h50l-277 372l-293 -372h50v-17h-398v17h50l445 558l-411 512h-50v17h403v-17h-50l253 -326l251 326h-50v17h411v-17h-50l-408 -515l449 -555h50v-17z" />
    <glyph glyph-name="Y" unicode="Y" horiz-adv-x="1301" 
d="M1268 1087h-50l-438 -662v-408h50v-17h-352v17h50v397l-443 673h-50v17h403v-17h-50l269 -433l283 433h-50v17h378v-17z" />
    <glyph glyph-name="Z" unicode="Z" horiz-adv-x="1175" 
d="M1136 -50h-17v50l-1090 -1l631 893h-588v-50h-17v312h17v-50h1051l-619 -892h615v50h17v-312z" />
    <glyph glyph-name="bracketleft" unicode="[" horiz-adv-x="472" 
d="M437 -109h-398v1312h396v-33h-158v-1240h160v-39z" />
    <glyph glyph-name="backslash" unicode="\" horiz-adv-x="939" 
d="M897 0h-236v18h49l-622 1069h-50v17h235v-17h-49l623 -1069h50v-18z" />
    <glyph glyph-name="bracketright" unicode="]" horiz-adv-x="472" 
d="M432 -109h-398v39h160v1240h-158v33h396v-1312z" />
    <glyph glyph-name="asciicircum" unicode="^" horiz-adv-x="734" 
d="M710 790h-156l-181 158l-182 -158h-156l341 319z" />
    <glyph glyph-name="underscore" unicode="_" horiz-adv-x="1035" 
d="M1024 -154h-1036v40h1036v-40z" />
    <glyph glyph-name="grave" unicode="`" horiz-adv-x="377" 
d="M341 784h-140l-160 320h300v-320z" />
    <glyph glyph-name="a" unicode="a" horiz-adv-x="1395" 
d="M1354 0h-375v18h49l-79 219h-537l-87 -219h49v-18h-340v17h50l408 1070h-49v17h501v-17h-49l409 -1070h50v-17zM903 373l-225 571l-217 -571h442z" />
    <glyph glyph-name="b" unicode="b" horiz-adv-x="1240" 
d="M1202 332q0 -158 -138 -249q-126 -83 -319 -83h-703v18h49v1067h-53v19h724q176 0 281 -56q120 -64 120 -191q0 -104 -38 -167q-41 -69 -140 -111q94 -18 155.5 -85t61.5 -162zM911 790q0 49 -42.5 75.5t-98.5 26.5h-456v-236h445q59 0 105.5 37.5t46.5 96.5zM957 358
q0 60 -63 93q-55 29 -130 29h-449v-268h461q71 0 124 39q57 42 57 107z" />
    <glyph glyph-name="c" unicode="c" horiz-adv-x="1340" 
d="M1307 109l-17 -9l-24 33l-150 -69q-78 -36 -168.5 -57.5t-177.5 -21.5q-311 0 -512 150q-210 157 -210 414q0 248 208 411q202 158 494 158q75 0 142 -9t134 -30l194 -60l21 39l17 -8l-153 -284l-16 9l20 40l-174 72q-89 37 -188 37q-186 0 -310 -100
q-132 -106 -132 -281q0 -159 128 -254q121 -90 311 -90q55 0 103.5 8.5t91.5 29.5l192 94l-26 38l16 10z" />
    <glyph glyph-name="d" unicode="d" horiz-adv-x="1340" 
d="M1294 548q0 -234 -158 -391t-383 -157h-707v19h49v1065h-49v20h665q245 0 408 -145q175 -155 175 -411zM1018 565q0 149 -86 227q-79 72 -215 72h-358l1 -652h385q119 0 198 109q75 103 75 244z" />
    <glyph glyph-name="e" unicode="e" horiz-adv-x="1155" 
d="M1111 842h-20v49h-775v-235h508v49h20v-276h-19v51h-511v-268h777v50h19v-311h-18v49h-1051v19h50v1065h-50v20h1049v50h21v-312z" />
    <glyph glyph-name="f" unicode="f" horiz-adv-x="1150" 
d="M1105 842h-21v50h-742v-236h526v51h19v-277h-21v50h-514v-459h51v-21h-366v21h49v1063h-49v20h1050v49h18v-311z" />
    <glyph glyph-name="g" unicode="g" horiz-adv-x="1430" 
d="M1394 141l-189 -75q-100 -40 -218 -60.5t-235 -20.5q-307 0 -496 131q-212 147 -212 426q0 275 216 434q193 142 472 142q77 0 155.5 -13t153.5 -37l186 -60l20 39l16 -7l-150 -284l-17 9l24 44l-101 47q-128 60 -270 60q-185 0 -310 -94q-137 -103 -137 -278
q0 -167 128 -269q125 -99 317 -99q75 0 145 14.5t146 46.5l45 19v162h-319v-50h-21v282h21v-49h627v-22h-50v-434l46 16z" />
    <glyph glyph-name="h" unicode="h" horiz-adv-x="1340" 
d="M1297 0h-364v18h49v463h-628v-463h51v-18h-368v18h48v1069h-48v17h367v-18h-50v-382h628v382h-50v18h365v-18h-50v-1068h50v-18z" />
    <glyph glyph-name="i" unicode="i" horiz-adv-x="535" 
d="M450 0h-365v18h49v1069h-49v17h365v-17h-49v-1069h49v-18z" />
    <glyph glyph-name="j" unicode="j" horiz-adv-x="985" 
d="M941 1087h-50v-692q0 -181 -96 -289q-107 -121 -310 -121q-49 0 -104.5 13.5t-120.5 36.5l-198 71l-21 -46l-18 9l114 290l21 -7l-20 -50l150 -63q45 -19 106 -33q50 -11 84 -11q81 0 115.5 42t34.5 152v698h-49v17h362v-17z" />
    <glyph glyph-name="k" unicode="k" horiz-adv-x="1355" 
d="M1304 0h-396v17h50l-340 531l-263 -232v-300h50v-16h-364v16h50v1071h-50v17h363v-17h-49v-471l535 471h-51v17h432v-17h-45l-424 -375l451 -696h51v-16z" />
    <glyph glyph-name="l" unicode="l" horiz-adv-x="1205" 
d="M1158 -46h-17v46h-1100v16h50v1071h-50v17h356v-17h-46v-875h790v46h17v-304z" />
    <glyph glyph-name="m" unicode="m" horiz-adv-x="1450" 
d="M1406 0h-358v18h49l1 841l-406 -812l-365 806v-836h50v-17h-336v18h50v1069h-50v17h493v-17h-49l219 -516l236 516h-50v17h516v-17h-50v-1069h50v-18z" />
    <glyph glyph-name="n" unicode="n" horiz-adv-x="1335" 
d="M1288 0h-324v18h50l-681 784v-784h50v-18h-337v18h50v1069h-50v17h407v-17h-49l594 -688l1 688h-49v17h338v-17h-49v-1069h49v-18z" />
    <glyph glyph-name="o" unicode="o" horiz-adv-x="1405" 
d="M1367 558q0 -256 -207 -420q-193 -153 -457 -153q-265 0 -452 144q-208 160 -208 429q0 246 206 408q193 152 454 152t457 -155q207 -164 207 -405zM1092 558q0 160 -117 263q-111 98 -272 98q-159 0 -271.5 -103.5t-112.5 -257.5q0 -156 107 -265q111 -113 277 -113
q175 0 282 102t107 276z" />
    <glyph glyph-name="p" unicode="p" horiz-adv-x="1190" 
d="M1138 781q0 -157 -123 -235q-104 -66 -271 -66h-411v-462h49v-18h-341v18h50v1068h-50v18h698q170 0 274 -69q125 -83 125 -254zM894 786q0 62 -41 98t-100 36l-420 1v-265h419q76 0 109 32t33 98z" />
    <glyph glyph-name="q" unicode="q" horiz-adv-x="1390" 
d="M1348 540q0 -125 -73 -248q-65 -109 -165 -183l157 -177l-143 -112l-171 213q-68 -29 -125 -38.5t-141 -9.5q-256 0 -447 151q-202 159 -202 394q0 253 199 424q191 164 455 164q263 0 454 -158q202 -167 202 -420zM1084 540q0 155 -109 262q-113 111 -283 111
q-176 0 -284 -114q-102 -108 -102 -269q0 -147 123 -255q116 -102 258 -102q33 0 67.5 8.5t74.5 26.5q-24 35 -48 71q-28 38 -65 59q-49 26 -101 33q11 11 21 18t45 24q20 9 45 9q42 0 90 -21.5t86 -56.5l62 -58q62 44 91 108.5t29 145.5z" />
    <glyph glyph-name="r" unicode="r" horiz-adv-x="1265" 
d="M1225 0h-378v18h51l-287 414h-260v-414h50v-18h-364v18h49v1068h-49v18h698q133 0 226 -25q117 -31 179 -103q73 -84 73 -224q0 -111 -70 -189q-76 -85 -218 -114l-44 -9l293 -422h51v-18zM951 766q-5 52 -41.5 89t-86.5 37h-473v-267h419q78 0 130.5 35t52.5 93
q-1 9 -1 13z" />
    <glyph glyph-name="s" unicode="s" horiz-adv-x="1255" 
d="M1216 366q0 -177 -165 -282q-156 -99 -404 -99q-115 0 -240 25t-284 76l-53 17l-22 -43l-23 10l133 292l23 -10l-22 -53l171 -63q74 -27 153 -38t154 -11q148 0 223 40t75 126q0 58 -52.5 88.5t-150.5 30.5l-184 -1q-225 0 -342 79q-124 84 -124 251q0 143 133 232
q127 85 318 85q111 0 197.5 -10.5t197.5 -38.5l201 -51l24 39l18 -9l-148 -260l-18 10l26 48l-171 47q-119 33 -262 33q-112 0 -183 -34.5t-71 -90.5q0 -60 56.5 -87t156.5 -27h169q224 0 357 -86.5t133 -234.5z" />
    <glyph glyph-name="t" unicode="t" horiz-adv-x="1235" 
d="M1191 841h-17v51h-424v-875h50v-17h-363v17h50l-1 875h-426v-49h-19v310h19l1 -49h1113v49h17v-312z" />
    <glyph glyph-name="u" unicode="u" horiz-adv-x="1310" 
d="M1269 1087h-51v-647q0 -195 -173 -329q-162 -126 -369 -126q-220 0 -391 112q-191 125 -191 322v668h-48v17h357v-17h-50v-628q0 -115 99 -190q93 -71 220 -71q111 0 198 79q91 83 91 196v614h-50v17h358v-17z" />
    <glyph glyph-name="v" unicode="v" horiz-adv-x="1385" 
d="M1344 1087h-51l-464 -1070h47v-17h-384v17h50l-457 1070h-50v17h383v-17h-50l337 -791l344 791h-50v17h345v-17z" />
    <glyph glyph-name="w" unicode="w" horiz-adv-x="1985" 
d="M1945 1087h-50l-352 -1070h50v-17h-389v17h50l-253 819l-276 -819h50v-17h-389v17h50l-348 1070h-50v17h367v-17h-51l243 -733l249 733h-50v17h457v-17h-50l213 -724l238 724h-50v17h341v-17z" />
    <glyph glyph-name="x" unicode="x" horiz-adv-x="1375" 
d="M1335 0h-425v17h50l-277 372l-293 -372h50v-17h-398v17h50l445 558l-411 512h-50v17h403v-17h-50l253 -326l251 326h-50v17h411v-17h-50l-408 -515l449 -555h50v-17z" />
    <glyph glyph-name="y" unicode="y" horiz-adv-x="1315" 
d="M1268 1087h-50l-438 -662v-408h50v-17h-352v17h50v397l-443 673h-50v17h403v-17h-50l269 -433l283 433h-50v17h378v-17z" />
    <glyph glyph-name="z" unicode="z" horiz-adv-x="1175" 
d="M1136 -50h-17v50l-1090 -1l631 893h-588v-50h-17v312h17v-50h1051l-619 -892h615v50h17v-312z" />
    <glyph glyph-name="braceleft" unicode="{" horiz-adv-x="506" 
d="M500 1235l-32 -12q-22 -9 -36.5 -20.5t-30 -33t-22.5 -53t-7 -55.5l-1 -349q0 -20 -7 -48q-10 -41 -30 -65q-15 -19 -31 -29.5t-42 -19.5l-24 -8l27 -12q24 -11 38.5 -21.5t28.5 -29.5t20.5 -34t6.5 -38v-377q0 -44 7 -70.5t31 -54.5q28 -33 65 -45l30 -9h-130
q-46 0 -85 13q-48 16 -82 49q-26 26 -34.5 74t-8.5 114v32.5t1 29.5v263q0 39 -30 72q-12 13 -30.5 22t-30.5 14l-22 10l21 9q30 13 41 19q19 11 33 30q28 37 28 76v375q0 34 13 67t40.5 61.5t61.5 41t79 12.5h144z" />
    <glyph glyph-name="bar" unicode="|" horiz-adv-x="219" 
d="M179 -250l-138 1v1353h138v-1354z" />
    <glyph glyph-name="braceright" unicode="}" horiz-adv-x="506" 
d="M495 544l-22 -10q-17 -7 -33 -14.5t-28 -21.5q-30 -33 -30 -72v-263v-30.5t1 -32.5q0 -83 -11 -125t-32 -62q-34 -34 -77 -48t-90 -14h-130l30 9q21 6 35.5 16.5t29.5 28.5q23 26 30.5 55t7.5 70v377q0 21 6.5 37.5t20.5 36t27 28.5t40 21l27 12l-24 8q-26 9 -41.5 19
t-30.5 28.5t-25 48.5q-13 40 -13 66l-1 349q0 28 -6 56.5t-23.5 52t-28.5 32.5q-14 12 -38 21l-32 12h144q48 0 80 -11.5t62 -43.5q25 -26 38.5 -60t13.5 -67v-375q0 -39 28 -76q14 -19 32 -30q7 -4 42 -19z" />
    <glyph glyph-name="asciitilde" unicode="~" horiz-adv-x="925" 
d="M892 1082q-6 -52 -51 -114q-50 -69 -107 -89q-38 -13 -78 -13q-29 0 -61.5 7t-68.5 19l-135 46q-40 13 -55 16q-30 7 -46 7q-32 0 -53.5 -14.5t-39.5 -56.5q-6 -14 -13 -40l-144 38q6 51 51 114q50 70 107 90q20 8 38.5 11t42.5 3q29 0 61 -7t66 -20l126 -47
q30 -11 56.5 -18.5t48.5 -7.5q31 0 55 16t42 59q6 14 13 40z" />
    <glyph glyph-name="nonbreakingspace" unicode="&#xa0;" horiz-adv-x="1044" 
 />
    <glyph glyph-name="exclamdown" unicode="&#xa1;" horiz-adv-x="490" 
d="M390 698q0 -60 -42 -102t-102 -42t-102 42t-42 102t42 102t102 42t102 -42t42 -102zM454 -274h-409v17h50l107 667h-50v18h193v-18h-50l110 -667h49v-17z" />
    <glyph glyph-name="cent" unicode="&#xa2;" horiz-adv-x="968" 
d="M945 233l-13 -12l-22 25q-38 -26 -69 -43.5t-74 -35.5q-57 -24 -105.5 -36t-108.5 -18v-210h-97v209q-80 16 -134 37q-119 46 -189 123q-96 106 -96 261q0 141 79 233q60 70 165 111q54 21 139 37l34 7v184h98v-181q34 0 56 -3t110 -21q52 -10 95 -23q29 -10 58 -19
l16 29l11 -6l-104 -199l-12 6l14 27q-30 14 -52.5 20.5t-60.5 15.5q-21 5 -36 6t-38 1q-13 0 -27 -0.5t-29 -0.5v-481q45 0 83 11q9 3 51 18q58 21 113 60l-21 28l11 11zM453 281v467q-28 -5 -55 -10q-66 -22 -107 -68q-58 -65 -58 -168q0 -87 57 -145q43 -44 106 -65
q28 -6 57 -11z" />
    <glyph glyph-name="sterling" unicode="&#xa3;" horiz-adv-x="1392" 
d="M1370 118l-15 -14l-33 30l-46 -31q-72 -42 -124 -62q-69 -27 -149 -38q-52 -7 -101 -7q-83 0 -191 31l-168 48q-40 12 -67.5 18t-55.5 6q-22 0 -44.5 -3t-46.5 -25q-19 -17 -40 -53h49v-18h-296v18h49l14 56q13 55 64 103q44 40 108.5 68t133.5 28q72 0 142 -32l2 42
q0 16 -6.5 36.5t-15 37t-25 32.5t-28.5 22h-307q-16 0 -33.5 14t-17.5 27q0 6 8 12t21 6h267l-75 82h-160q-18 0 -39 16t-21 31q0 9 7.5 14t13.5 5l143 -1l-30 57q-19 44 -19 91q0 71 39 138q35 60 86 94q73 48 159.5 73t184.5 25q119 0 245 -41l188 -62l25 33l15 -10
l-163 -221l-17 11l23 33l-146 57q-72 29 -153 29q-88 0 -149 -35q-67 -39 -80 -114q-1 -4 -1 -14q0 -24 13.5 -52.5t35.5 -48.5l44 -40h436q17 0 24 -3.5t7 -12.5q0 -15 -16.5 -32.5t-33.5 -17.5h-350l62 -85h321l10 -3q8 -4 8 -14q0 -14 -15.5 -29.5t-30.5 -15.5h-252
q19 -57 19 -107q0 -34 -6 -66q-1 -7 -9 -42q29 -8 80.5 -14.5t78.5 -6.5q29 0 42 1t37 7q58 14 97.5 36t84.5 64l-27 31l16 13z" />
    <glyph glyph-name="yen" unicode="&#xa5;" horiz-adv-x="1301" 
d="M1268 1087h-50l-315 -467h167v-140h-254l-36 -54v-38h290v-138h-290v-233h50v-17h-352v17h50v235h-298v136h298v28l-44 66h-254v136h166l-311 469h-50v17h403v-17h-50l269 -433l283 433h-50v17h378v-17z" />
    <glyph glyph-name="section" unicode="&#xa7;" horiz-adv-x="754" 
d="M712 426q0 -50 -32 -98q-20 -30 -55 -60l-31 -28l8 -4q44 -29 66.5 -68t22.5 -95q0 -128 -91 -221q-103 -106 -278 -106q-66 0 -139 21q-60 17 -101 41l-12 7l19 228h46l-1 -79q0 -48 57 -91q51 -38 100 -43q11 -1 21 -1.5t25 -0.5q107 0 174 43q79 51 79 153
q0 89 -310 193l-57 19q-117 39 -158 97q-26 37 -26 93q-1 5 -1 16q0 52 37 106q24 36 67 74l18 15l-17 11q-28 19 -47 57t-19 78q0 125 83 222q92 107 233 107q39 0 74.5 -3.5t54.5 -8.5l92 -28l16 -6l-1 -9l-9 -107q-2 -21 -4.5 -50.5t-2.5 -41.5v-16l-46 1l-12 124l-5 6
q-30 32 -82 49t-104 17q-77 0 -129 -37q-58 -41 -72 -119q-2 -14 -2 -20q0 -54 58 -97t163 -72l24 -7l23 -8q40 -12 65 -19q40 -12 80 -28q77 -33 111 -92q27 -47 27 -114zM607 360q2 14 2 24q0 45 -24 78q-32 45 -103 67l-279 87l-24 -25q-24 -26 -31 -52t-7 -71
q0 -44 63 -82q44 -27 149 -62q85 -28 170 -55l34 -11l14 19q30 41 36 83z" />
    <glyph glyph-name="dieresis" unicode="&#xa8;" horiz-adv-x="695" 
d="M603 999q0 -44 -31.5 -75.5t-76.5 -31.5q-44 0 -76 31t-32 76q0 44 32 76t76 32t76 -32t32 -76zM309 999q0 -44 -31.5 -75.5t-76.5 -31.5q-44 0 -76 31t-32 76q0 44 32 76t76 32t76 -32t32 -76z" />
    <glyph glyph-name="copyright" unicode="&#xa9;" horiz-adv-x="1184" 
d="M1143 552q0 -229 -161.5 -390.5t-390.5 -161.5t-390.5 161.5t-161.5 390.5t161.5 390.5t390.5 161.5t390.5 -161.5t161.5 -390.5zM1088 550q0 206 -145.5 351.5t-351.5 145.5t-351.5 -145.5t-145.5 -351.5t145 -351t352 -145q205 0 351 145t146 351zM831 318l-15 -37
l-21 -10q-32 -15 -82 -28t-98 -13q-144 0 -235 74t-105 202q-3 26 -3 50q0 130 83 214q70 71 173 90q29 5 70 5q32 0 53 -2t55.5 -8.5t62.5 -13.5t45 -12l13 -4l-19 -131h-27v54v9q0 19 -35.5 38t-69.5 25q-14 2 -36 5t-42 3h-18.5t-26.5 -4q-98 -21 -146 -94
q-43 -65 -43 -162q0 -26 3 -53q12 -102 84 -171t169 -69q65 0 106 10.5t78 31.5l20 11z" />
    <glyph glyph-name="ordfeminine" unicode="&#xaa;" horiz-adv-x="552" 
d="M528 691h-140v6h18l-30 82h-200l-33 -82h19v-6h-127v6h18l152 400h-18v7h187v-7h-18l153 -400h19v-6zM526 557h-489v69h489v-69zM359 830l-83 214l-82 -214h165z" />
    <glyph glyph-name="guillemotleft" unicode="&#xab;" horiz-adv-x="810" 
d="M771 599l-230 -164l225 -160v-166l-319 248v160l324 239v-157zM365 599l-230 -164l225 -160v-166l-318 248v160l323 239v-157z" />
    <glyph glyph-name="logicalnot" unicode="&#xac;" horiz-adv-x="1192" 
d="M1152 0h-92v387h-1018v85h1110v-472z" />
    <glyph glyph-name="registered" unicode="&#xae;" horiz-adv-x="1184" 
d="M1143 552q0 -229 -161.5 -390.5t-390.5 -161.5t-390.5 161.5t-161.5 390.5t161.5 390.5t390.5 161.5t390.5 -161.5t161.5 -390.5zM1088 550q0 206 -145.5 351.5t-351.5 145.5t-351.5 -145.5t-145.5 -351.5t145 -351t352 -145q205 0 351 145t146 351zM894 242l-7 1l-51 3
q-12 0 -25.5 -1.5l-22.5 -2.5l-12 -1l-243 315l4 14l31 -2q64 0 111 36q52 39 52 99q-4 47 -26 74q-25 31 -74 38q-18 3 -36 3q-26 0 -41.5 -1.5t-35.5 -7.5l-14 -4v-487q0 -22 12 -34q8 -10 25.5 -11.5t22.5 -1.5l21 -2v-25h-14q-11 0 -27 1q-62 4 -81 4q-30 0 -58.5 -2
t-50.5 -3h-15v25l25 3q16 0 25.5 2t17.5 10q13 13 13 34v456q0 13 -1 20t-11 19q-4 6 -21.5 9.5t-37.5 3.5h-10v26h15q4 0 44 -1.5t66 -2.5q54 0 92.5 1t69.5 2l15 1q55 0 96 -17q54 -23 72 -69q10 -24 10 -51q0 -38 -21.5 -72.5t-60.5 -59.5q-16 -11 -37 -18.5t-44 -14.5
l-8 -1l196 -258q3 -2 4 -3q13 -10 18 -13q9 -7 23 -7h5v-26z" />
    <glyph glyph-name="degree" unicode="&#xb0;" horiz-adv-x="426" 
d="M393 927q0 -74 -51.5 -125.5t-125.5 -51.5t-125.5 51.5t-51.5 125.5t51.5 125.5t125.5 51.5t125.5 -51.5t51.5 -125.5zM340 927q0 52 -36 88t-88 36t-88 -36t-36 -88t36 -88t88 -36t88 36t36 88z" />
    <glyph glyph-name="plusminus" unicode="&#xb1;" horiz-adv-x="699" 
d="M660 455h-272v-272h-71v272h-270l1 77h269v271h73v-272h270v-76zM654 -1h-618v57h618v-57z" />
    <glyph glyph-name="acute" unicode="&#xb4;" horiz-adv-x="371" 
d="M336 1104l-160 -320h-140v320h300z" />
    <glyph glyph-name="mu" unicode="&#xb5;" horiz-adv-x="894" 
d="M864 161l-10 -50q-13 -60 -74 -103q-55 -39 -109 -39q-9 0 -13 1q-54 8 -96 52q-45 47 -45 108l-42 -42q-50 -49 -107 -81t-99 -32q-40 0 -91 23q-61 28 -93 71v-57q0 -51 28.5 -126.5t28.5 -136.5q0 -42 -22 -73.5t-60 -31.5q-34 0 -55.5 28t-21.5 66q0 49 13 91
q35 114 36 125l3 45v808h137v-556q0 -68 41.5 -120.5t104.5 -52.5q65 0 131 51q71 55 71 119v559h133v-629q0 -48 23.5 -90t61.5 -42q9 0 14 1q27 5 44.5 23.5t25.5 47.5l12 43h30z" />
    <glyph glyph-name="paragraph" unicode="&#xb6;" horiz-adv-x="946" 
d="M904 1059h-17q-20 0 -48 -3.5t-47.5 -11t-30.5 -27.5t-11 -59v-14v-1023q0 -30 20.5 -41.5t47 -16t46.5 -4.5l30 -1v-44h-26q-49 2 -132 4t-151 2q-92 0 -155.5 -1.5t-142.5 -4.5h-25v46l38 3q36 0 43 1q32 5 48 22q25 26 25 62l-2 612h-18q-40 0 -108 22q-50 16 -105 46
q-64 34 -105 101.5t-41 144.5q0 42 15 84q32 83 117 121q72 32 179 32l24 -1q74 -4 158.5 -7t115.5 -3q68 0 130 1.5t108 3.5l20 1v-47zM415 1046l-26 2q-52 0 -101 -34q-76 -53 -76 -161q0 -83 52 -148.5t136 -80.5l14 -3zM634 -122v1168l-99 -1v-1167h99z" />
    <glyph glyph-name="periodcentered" unicode="&#xb7;" horiz-adv-x="369" 
d="M327 552q0 -60 -42 -102t-102 -42t-102 42t-42 102t42 102t102 42t102 -42t42 -102z" />
    <glyph glyph-name="periodcentered" unicode="&#x2219;" horiz-adv-x="369" 
d="M327 552q0 -60 -42 -102t-102 -42t-102 42t-42 102t42 102t102 42t102 -42t42 -102z" />
    <glyph glyph-name="ordmasculine" unicode="&#xba;" horiz-adv-x="606" 
d="M558 890q0 -91 -80 -152q-75 -57 -176 -57q-99 0 -174 58q-80 62 -80 153q0 96 80 156q75 56 182 56q100 0 174 -60.5t74 -153.5zM583 557h-546v69h546v-69zM452 892q0 66 -42.5 102.5t-104.5 36.5q-60 0 -105 -40t-45 -99q0 -58 41.5 -95.5t102.5 -37.5q63 0 108 37.5
t45 95.5z" />
    <glyph glyph-name="guillemotright" unicode="&#xbb;" horiz-adv-x="816" 
d="M770 357l-319 -248v166l224 160l-229 164v157l324 -239v-160zM363 357l-318 -248v166l224 160l-229 164v157l323 -239v-160z" />
    <glyph glyph-name="questiondown" unicode="&#xbf;" horiz-adv-x="780" 
d="M510 698q0 -60 -42 -102t-102 -42t-102 42t-42 102t42 102t102 42t102 -42t42 -102zM760 -137l-12 -12l-27 27l-53 -46q-71 -60 -137.5 -85.5t-157.5 -25.5q-119 0 -217 70q-108 77 -108 191q0 63 33 123q12 21 44 71l84 129q8 13 17 27t13 29q9 29 9 51h-49v18h320v-18
h-50q0 -17 -21 -66q-17 -40 -39 -81q-44 -67 -68 -106q-45 -74 -45 -121q0 -42 33 -74q39 -36 100 -36q32 0 60 11.5t52 38.5l32 35l-24 24l11 10z" />
    <glyph glyph-name="Agrave" unicode="&#xc0;" horiz-adv-x="1383" 
d="M1354 0h-375v18h49l-79 219h-537l-87 -219h49v-18h-340v17h50l408 1070h-49v17h501v-17h-49l409 -1070h50v-17zM903 373l-225 571l-217 -571h442zM869 1192h-140l-160 320h300v-320z" />
    <glyph glyph-name="Aacute" unicode="&#xc1;" horiz-adv-x="1392" 
d="M1354 0h-375v18h49l-79 219h-537l-87 -219h49v-18h-340v17h50l408 1070h-49v17h501v-17h-49l409 -1070h50v-17zM903 373l-225 571l-217 -571h442zM852 1500l-160 -320h-140v320h300z" />
    <glyph glyph-name="Acircumflex" unicode="&#xc2;" horiz-adv-x="1392" 
d="M1354 0h-375v18h49l-79 219h-537l-87 -219h49v-18h-340v17h50l408 1070h-49v17h501v-17h-49l409 -1070h50v-17zM903 373l-225 571l-217 -571h442zM1046 1174h-156l-181 158l-182 -158h-156l341 319z" />
    <glyph glyph-name="Atilde" unicode="&#xc3;" horiz-adv-x="1387" 
d="M1354 0h-375v18h49l-79 219h-537l-87 -219h49v-18h-340v17h50l408 1070h-49v17h501v-17h-49l409 -1070h50v-17zM903 373l-225 571l-217 -571h442zM1149 1404q-6 -52 -51 -114q-50 -69 -107 -89q-38 -13 -78 -13q-29 0 -61.5 7t-68.5 19l-135 46q-40 13 -55 16
q-30 7 -46 7q-32 0 -53.5 -14.5t-39.5 -56.5q-6 -14 -13 -40l-144 38q6 51 51 114q50 70 107 90q20 8 38.5 11t42.5 3q29 0 61 -7t66 -20l126 -47q30 -11 56.5 -18.5t48.5 -7.5q31 0 55 16t42 59q6 14 13 40z" />
    <glyph glyph-name="Adieresis" unicode="&#xc4;" horiz-adv-x="1387" 
d="M1354 0h-375v18h49l-79 219h-537l-87 -219h49v-18h-340v17h50l408 1070h-49v17h501v-17h-49l409 -1070h50v-17zM903 373l-225 571l-217 -571h442zM932 1285q0 -44 -31.5 -75.5t-76.5 -31.5q-44 0 -76 31t-32 76q0 44 32 76t76 32t76 -32t32 -76zM638 1285
q0 -44 -31.5 -75.5t-76.5 -31.5q-44 0 -76 31t-32 76q0 44 32 76t76 32t76 -32t32 -76z" />
    <glyph glyph-name="Aring" unicode="&#xc5;" horiz-adv-x="1387" 
d="M865 1390q0 -71 -49 -120t-120 -49t-120 49t-49 120q0 70 49 120t120 50t120 -49t49 -121zM797 1390q0 42 -29 72t-72 30q-41 0 -71 -30t-30 -72t29.5 -71.5t71.5 -29.5t71.5 29.5t29.5 71.5zM1354 0h-375v18h49l-79 219h-537l-87 -219h49v-18h-340v17h50l408 1070h-49
v17h501v-17h-49l409 -1070h50v-17zM903 373l-225 571l-217 -571h442z" />
    <glyph glyph-name="AE" unicode="&#xc6;" horiz-adv-x="2118" 
d="M2056 842h-20v49h-775v-235h508v49h20v-276h-19v49h-511v-253h777v50h19v-324h-18v49h-1081v19h60v218h-537l-169 -219h49v-18h-342v17h50l808 1070h-49v17h1209v50h20zM1018 373v571l-441 -571h441z" />
    <glyph glyph-name="Ccedilla" unicode="&#xc7;" horiz-adv-x="1321" 
d="M833 -56l-88 -194h-125l20 194h193zM1307 109l-17 -9l-24 33l-150 -69q-78 -36 -168.5 -57.5t-177.5 -21.5q-311 0 -512 150q-210 157 -210 414q0 248 208 411q202 158 494 158q75 0 142 -9t134 -30l194 -60l21 39l17 -8l-153 -284l-16 9l20 40l-174 72q-89 37 -188 37
q-186 0 -310 -100q-132 -106 -132 -281q0 -159 128 -254q121 -90 311 -90q55 0 103.5 8.5t91.5 29.5l192 94l-26 38l16 10z" />
    <glyph glyph-name="Egrave" unicode="&#xc8;" horiz-adv-x="1152" 
d="M1111 842h-20v49h-775v-235h508v49h20v-276h-19v51h-511v-268h777v50h19v-311h-18v49h-1051v19h50v1065h-50v20h1049v50h21v-312zM701 1174h-140l-160 320h300v-320z" />
    <glyph glyph-name="Eacute" unicode="&#xc9;" horiz-adv-x="1147" 
d="M1102 842h-20v49h-775v-235h508v49h20v-276h-19v51h-511v-268h777v50h19v-311h-18v49h-1051v19h50v1065h-50v20h1049v50h21v-312zM799 1498l-160 -320h-140v320h300z" />
    <glyph glyph-name="Ecircumflex" unicode="&#xca;" horiz-adv-x="1152" 
d="M1111 842h-20v49h-775v-235h508v49h20v-276h-19v51h-511v-268h777v50h19v-311h-18v49h-1051v19h50v1065h-50v20h1049v50h21v-312zM938 1174h-156l-181 158l-182 -158h-156l341 319z" />
    <glyph glyph-name="Edieresis" unicode="&#xcb;" horiz-adv-x="1152" 
d="M1111 842h-20v49h-775v-235h508v49h20v-276h-19v51h-511v-268h777v50h19v-311h-18v49h-1051v19h50v1065h-50v20h1049v50h21v-312zM825 1287q0 -44 -31.5 -75.5t-76.5 -31.5q-44 0 -76 31t-32 76q0 44 32 76t76 32t76 -32t32 -76zM531 1287q0 -44 -31.5 -75.5t-76.5 -31.5
q-44 0 -76 31t-32 76q0 44 32 76t76 32t76 -32t32 -76z" />
    <glyph glyph-name="Igrave" unicode="&#xcc;" horiz-adv-x="494" 
d="M440 0h-365v18h49v1069h-49v17h365v-17h-49v-1069h49v-18zM418 1178h-140l-160 320h300v-320z" />
    <glyph glyph-name="Iacute" unicode="&#xcd;" horiz-adv-x="502" 
d="M440 0h-365v18h49v1069h-49v17h365v-17h-49v-1069h49v-18zM413 1498l-160 -320h-140v320h300z" />
    <glyph glyph-name="Icircumflex" unicode="&#xce;" horiz-adv-x="511" 
d="M434 -6h-365v18h49v1069h-49v17h365v-17h-49v-1069h49v-18zM605 1175h-156l-181 158l-182 -158h-156l341 319z" />
    <glyph glyph-name="Idieresis" unicode="&#xcf;" horiz-adv-x="503" 
d="M433 -6h-365v18h49v1069h-49v17h365v-17h-49v-1069h49v-18zM507 1288q0 -44 -31.5 -75.5t-76.5 -31.5q-44 0 -76 31t-32 76q0 44 32 76t76 32t76 -32t32 -76zM213 1288q0 -44 -31.5 -75.5t-76.5 -31.5q-44 0 -76 31t-32 76q0 44 32 76t76 32t76 -32t32 -76z" />
    <glyph glyph-name="Ntilde" unicode="&#xd1;" horiz-adv-x="1319" 
d="M1267 0h-324v18h50l-681 784v-784h50v-18h-337v18h50v1069h-50v17h407v-17h-49l594 -688l1 688h-49v17h338v-17h-49v-1069h49v-18zM1105 1404q-6 -52 -51 -114q-50 -69 -107 -89q-38 -13 -78 -13q-29 0 -61.5 7t-68.5 19l-135 46q-40 13 -55 16q-30 7 -46 7
q-32 0 -53.5 -14.5t-39.5 -56.5q-6 -14 -13 -40l-144 38q6 51 51 114q50 70 107 90q20 8 38.5 11t42.5 3q29 0 61 -7t66 -20l126 -47q30 -11 56.5 -18.5t48.5 -7.5q31 0 55 16t42 59q6 14 13 40z" />
    <glyph glyph-name="Ograve" unicode="&#xd2;" 
d="M1367 558q0 -256 -207 -420q-193 -153 -457 -153q-265 0 -452 144q-208 160 -208 429q0 246 206 408q193 152 454 152t457 -155q207 -164 207 -405zM1092 558q0 160 -117 263q-111 98 -272 98q-159 0 -271.5 -103.5t-112.5 -257.5q0 -156 107 -265q111 -113 277 -113
q175 0 282 102t107 276zM893 1180h-140l-160 320h300v-320z" />
    <glyph glyph-name="Oacute" unicode="&#xd3;" 
d="M1367 558q0 -256 -207 -420q-193 -153 -457 -153q-265 0 -452 144q-208 160 -208 429q0 246 206 408q193 152 454 152t457 -155q207 -164 207 -405zM1092 558q0 160 -117 263q-111 98 -272 98q-159 0 -271.5 -103.5t-112.5 -257.5q0 -156 107 -265q111 -113 277 -113
q175 0 282 102t107 276zM900 1500l-160 -320h-140v320h300z" />
    <glyph glyph-name="Ocircumflex" unicode="&#xd4;" 
d="M1367 558q0 -256 -207 -420q-193 -153 -457 -153q-265 0 -452 144q-208 160 -208 429q0 246 206 408q193 152 454 152t457 -155q207 -164 207 -405zM1092 558q0 160 -117 263q-111 98 -272 98q-159 0 -271.5 -103.5t-112.5 -257.5q0 -156 107 -265q111 -113 277 -113
q175 0 282 102t107 276zM1070 1174h-156l-181 158l-182 -158h-156l341 319z" />
    <glyph glyph-name="Otilde" unicode="&#xd5;" 
d="M1152 1404q-6 -52 -51 -114q-50 -69 -107 -89q-38 -13 -78 -13q-29 0 -61.5 7t-68.5 19l-135 46q-40 13 -55 16q-30 7 -46 7q-32 0 -53.5 -14.5t-39.5 -56.5q-6 -14 -13 -40l-144 38q6 51 51 114q50 70 107 90q20 8 38.5 11t42.5 3q29 0 61 -7t66 -20l126 -47
q30 -11 56.5 -18.5t48.5 -7.5q31 0 55 16t42 59q6 14 13 40zM1360 551q0 -256 -207 -420q-193 -153 -457 -153q-265 0 -452 144q-208 160 -208 429q0 246 206 408q193 152 454 152t457 -155q207 -164 207 -405zM1085 551q0 160 -117 263q-111 98 -272 98
q-159 0 -271.5 -103.5t-112.5 -257.5q0 -156 107 -265q111 -113 277 -113q175 0 282 102t107 276z" />
    <glyph glyph-name="Odieresis" unicode="&#xd6;" 
d="M1367 558q0 -256 -207 -420q-193 -153 -457 -153q-265 0 -452 144q-208 160 -208 429q0 246 206 408q193 152 454 152t457 -155q207 -164 207 -405zM1092 558q0 160 -117 263q-111 98 -272 98q-159 0 -271.5 -103.5t-112.5 -257.5q0 -156 107 -265q111 -113 277 -113
q175 0 282 102t107 276zM959 1291q0 -44 -31.5 -75.5t-76.5 -31.5q-44 0 -76 31t-32 76q0 44 32 76t76 32t76 -32t32 -76zM665 1291q0 -44 -31.5 -75.5t-76.5 -31.5q-44 0 -76 31t-32 76q0 44 32 76t76 32t76 -32t32 -76z" />
    <glyph glyph-name="Oslash" unicode="&#xd8;" 
d="M1367 558q0 -256 -207 -420q-193 -153 -457 -153q-124 0 -244 37l-33 -57h54v-20h-261v20h55l63 109q-135 73 -211 190q-83 128 -83 294q0 246 206 408q193 152 454 152q113 0 224 -34l36 62h-55v19h260v-19h-55l-65 -112q144 -74 228 -194q91 -129 91 -282zM1092 558
q0 92 -40.5 166.5t-111.5 123.5l-375 -644q63 -24 138 -24q175 0 282 102t107 276zM821 903q-54 16 -118 16q-159 0 -271.5 -103.5t-112.5 -257.5q0 -85 35 -160t98 -128z" />
    <glyph glyph-name="Ugrave" unicode="&#xd9;" horiz-adv-x="1332" 
d="M1269 1087h-51v-647q0 -195 -173 -329q-162 -126 -369 -126q-220 0 -391 112q-191 125 -191 322v668h-48v17h357v-17h-50v-628q0 -115 99 -190q93 -71 220 -71q111 0 198 79q91 83 91 196v614h-50v17h358v-17zM827 1174h-140l-160 320h300v-320z" />
    <glyph glyph-name="Uacute" unicode="&#xda;" horiz-adv-x="1332" 
d="M1269 1087h-51v-647q0 -195 -173 -329q-162 -126 -369 -126q-220 0 -391 112q-191 125 -191 322v668h-48v17h357v-17h-50v-628q0 -115 99 -190q93 -71 220 -71q111 0 198 79q91 83 91 196v614h-50v17h358v-17zM816 1500l-160 -320h-140v320h300z" />
    <glyph glyph-name="Ucircumflex" unicode="&#xdb;" horiz-adv-x="1332" 
d="M1269 1087h-51v-647q0 -195 -173 -329q-162 -126 -369 -126q-220 0 -391 112q-191 125 -191 322v668h-48v17h357v-17h-50v-628q0 -115 99 -190q93 -71 220 -71q111 0 198 79q91 83 91 196v614h-50v17h358v-17zM986 1174h-156l-181 158l-182 -158h-156l341 319z" />
    <glyph glyph-name="Udieresis" unicode="&#xdc;" horiz-adv-x="1301" 
d="M895 1291q0 -44 -31.5 -75.5t-76.5 -31.5q-44 0 -76 31t-32 76q0 44 32 76t76 32t76 -32t32 -76zM601 1291q0 -44 -31.5 -75.5t-76.5 -31.5q-44 0 -76 31t-32 76q0 44 32 76t76 32t76 -32t32 -76zM1258 1087h-51v-647q0 -195 -173 -329q-162 -126 -369 -126
q-220 0 -391 112q-191 125 -191 322v668h-48v17h357v-17h-50v-628q0 -115 99 -190q93 -71 220 -71q111 0 198 79q91 83 91 196v614h-50v17h358v-17z" />
    <glyph glyph-name="germandbls" unicode="&#xdf;" horiz-adv-x="1035" 
d="M999 310q0 -166 -111 -242q-99 -68 -293 -68h-141v-47h-17v302h17v-43h147q81 0 113 14q53 24 53 99q0 51 -62 84q-58 27 -115 54q-62 38 -62 102q0 73 59 110q55 25 111 51q61 31 61 84q0 63 -54 84q-33 13 -108 13h-207q-68 0 -68 -81v-809h48v-17h-329v17h49v860
q0 105 60 166t172 61h278q153 0 257 -69q121 -80 121 -225q0 -118 -60 -178q-38 -38 -110 -59q83 -39 118 -73q73 -72 73 -190z" />
    <glyph glyph-name="agrave" unicode="&#xe0;" horiz-adv-x="1386" 
d="M1354 0h-375v18h49l-79 219h-537l-87 -219h49v-18h-340v17h50l408 1070h-49v17h501v-17h-49l409 -1070h50v-17zM903 373l-225 571l-217 -571h442zM854 1178h-140l-160 320h300v-320z" />
    <glyph glyph-name="aacute" unicode="&#xe1;" horiz-adv-x="1386" 
d="M1354 0h-375v18h49l-79 219h-537l-87 -219h49v-18h-340v17h50l408 1070h-49v17h501v-17h-49l409 -1070h50v-17zM903 373l-225 571l-217 -571h442zM843 1498l-160 -320h-140v320h300z" />
    <glyph glyph-name="acircumflex" unicode="&#xe2;" horiz-adv-x="1392" 
d="M1360 0h-375v18h49l-79 219h-537l-87 -219h49v-18h-340v17h50l408 1070h-49v17h501v-17h-49l409 -1070h50v-17zM909 373l-225 571l-217 -571h442zM1044 1175h-156l-181 158l-182 -158h-156l341 319z" />
    <glyph glyph-name="atilde" unicode="&#xe3;" horiz-adv-x="1386" 
d="M1354 0h-375v18h49l-79 219h-537l-87 -219h49v-18h-340v17h50l408 1070h-49v17h501v-17h-49l409 -1070h50v-17zM903 373l-225 571l-217 -571h442zM1126 1406q-6 -52 -51 -114q-50 -69 -107 -89q-38 -13 -78 -13q-29 0 -61.5 7t-68.5 19l-135 46q-40 13 -55 16
q-30 7 -46 7q-32 0 -53.5 -14.5t-39.5 -56.5q-6 -14 -13 -40l-144 38q6 51 51 114q50 70 107 90q20 8 38.5 11t42.5 3q29 0 61 -7t66 -20l126 -47q30 -11 56.5 -18.5t48.5 -7.5q31 0 55 16t42 59q6 14 13 40z" />
    <glyph glyph-name="adieresis" unicode="&#xe4;" horiz-adv-x="1392" 
d="M1360 0h-375v18h49l-79 219h-537l-87 -219h49v-18h-340v17h50l408 1070h-49v17h501v-17h-49l409 -1070h50v-17zM909 373l-225 571l-217 -571h442zM957 1287q0 -44 -31.5 -75.5t-76.5 -31.5q-44 0 -76 31t-32 76q0 44 32 76t76 32t76 -32t32 -76zM663 1287
q0 -44 -31.5 -75.5t-76.5 -31.5q-44 0 -76 31t-32 76q0 44 32 76t76 32t76 -32t32 -76z" />
    <glyph glyph-name="aring" unicode="&#xe5;" horiz-adv-x="1386" 
d="M844 1390q0 -70 -49.5 -119.5t-119.5 -49.5t-119.5 49.5t-49.5 119.5t49 120t120 50q69 0 119 -50t50 -120zM776 1390q0 42 -29 72t-72 30q-41 0 -71 -30t-30 -72t29.5 -71.5t71.5 -29.5t71.5 29.5t29.5 71.5zM1354 0h-375v18h49l-79 219h-537l-87 -219h49v-18h-340v17
h50l408 1070h-49v17h501v-17h-49l409 -1070h50v-17zM903 373l-225 571l-217 -571h442z" />
    <glyph glyph-name="ae" unicode="&#xe6;" horiz-adv-x="2094" 
d="M2056 842h-20v49h-775v-235h508v49h20v-276h-19v49h-511v-253h777v50h19v-324h-18v49h-1081v19h60v218h-537l-169 -219h49v-18h-342v17h50l808 1070h-49v17h1209v50h20zM1018 373v571l-441 -571h441z" />
    <glyph glyph-name="ccedilla" unicode="&#xe7;" horiz-adv-x="1344" 
d="M833 -56l-88 -194h-125l20 194h193zM1307 109l-17 -9l-24 33l-150 -69q-78 -36 -168.5 -57.5t-177.5 -21.5q-311 0 -512 150q-210 157 -210 414q0 248 208 411q202 158 494 158q75 0 142 -9t134 -30l194 -60l21 39l17 -8l-153 -284l-16 9l20 40l-174 72q-89 37 -188 37
q-186 0 -310 -100q-132 -106 -132 -281q0 -159 128 -254q121 -90 311 -90q55 0 103.5 8.5t91.5 29.5l192 94l-26 38l16 10z" />
    <glyph glyph-name="egrave" unicode="&#xe8;" horiz-adv-x="1164" 
d="M1111 842h-20v49h-775v-235h508v49h20v-276h-19v51h-511v-268h777v50h19v-311h-18v49h-1051v19h50v1065h-50v20h1049v50h21v-312zM756 1173h-140l-160 320h300v-320z" />
    <glyph glyph-name="eacute" unicode="&#xe9;" horiz-adv-x="1164" 
d="M1111 842h-20v49h-775v-235h508v49h20v-276h-19v51h-511v-268h777v50h19v-311h-18v49h-1051v19h50v1065h-50v20h1049v50h21v-312zM764 1498l-160 -320h-140v320h300z" />
    <glyph glyph-name="ecircumflex" unicode="&#xea;" horiz-adv-x="1152" 
d="M1099 842h-20v49h-775v-235h508v49h20v-276h-19v51h-511v-268h777v50h19v-311h-18v49h-1051v19h50v1065h-50v20h1049v50h21v-312zM937 1175h-156l-181 158l-182 -158h-156l341 319z" />
    <glyph glyph-name="edieresis" unicode="&#xeb;" horiz-adv-x="1140" 
d="M1099 842h-20v49h-775v-235h508v49h20v-276h-19v51h-511v-268h777v50h19v-311h-18v49h-1051v19h50v1065h-50v20h1049v50h21v-312zM824 1285q0 -44 -31.5 -75.5t-76.5 -31.5q-44 0 -76 31t-32 76q0 44 32 76t76 32t76 -32t32 -76zM530 1285q0 -44 -31.5 -75.5t-76.5 -31.5
q-44 0 -76 31t-32 76q0 44 32 76t76 32t76 -32t32 -76z" />
    <glyph glyph-name="igrave" unicode="&#xec;" horiz-adv-x="494" 
d="M440 0h-365v18h49v1069h-49v17h365v-17h-49v-1069h49v-18zM418 1178h-140l-160 320h300v-320z" />
    <glyph glyph-name="iacute" unicode="&#xed;" horiz-adv-x="502" 
d="M440 0h-365v18h49v1069h-49v17h365v-17h-49v-1069h49v-18zM413 1498l-160 -320h-140v320h300z" />
    <glyph glyph-name="icircumflex" unicode="&#xee;" horiz-adv-x="511" 
d="M434 -6h-365v18h49v1069h-49v17h365v-17h-49v-1069h49v-18zM605 1175h-156l-181 158l-182 -158h-156l341 319z" />
    <glyph glyph-name="idieresis" unicode="&#xef;" horiz-adv-x="503" 
d="M433 -6h-365v18h49v1069h-49v17h365v-17h-49v-1069h49v-18zM507 1288q0 -44 -31.5 -75.5t-76.5 -31.5q-44 0 -76 31t-32 76q0 44 32 76t76 32t76 -32t32 -76zM213 1288q0 -44 -31.5 -75.5t-76.5 -31.5q-44 0 -76 31t-32 76q0 44 32 76t76 32t76 -32t32 -76z" />
    <glyph glyph-name="ntilde" unicode="&#xf1;" horiz-adv-x="1314" 
d="M1276 0h-324v18h50l-681 784v-784h50v-18h-337v18h50v1069h-50v17h407v-17h-49l594 -688l1 688h-49v17h338v-17h-49v-1069h49v-18zM1102 1406q-6 -52 -51 -114q-50 -69 -107 -89q-38 -13 -78 -13q-29 0 -61.5 7t-68.5 19l-135 46q-40 13 -55 16q-30 7 -46 7
q-32 0 -53.5 -14.5t-39.5 -56.5q-6 -14 -13 -40l-144 38q6 51 51 114q50 70 107 90q20 8 38.5 11t42.5 3q29 0 61 -7t66 -20l126 -47q30 -11 56.5 -18.5t48.5 -7.5q31 0 55 16t42 59q6 14 13 40z" />
    <glyph glyph-name="ograve" unicode="&#xf2;" 
d="M1367 558q0 -256 -207 -420q-193 -153 -457 -153q-265 0 -452 144q-208 160 -208 429q0 246 206 408q193 152 454 152t457 -155q207 -164 207 -405zM1092 558q0 160 -117 263q-111 98 -272 98q-159 0 -271.5 -103.5t-112.5 -257.5q0 -156 107 -265q111 -113 277 -113
q175 0 282 102t107 276zM840 1178h-140l-160 320h300v-320z" />
    <glyph glyph-name="oacute" unicode="&#xf3;" 
d="M1367 558q0 -256 -207 -420q-193 -153 -457 -153q-265 0 -452 144q-208 160 -208 429q0 246 206 408q193 152 454 152t457 -155q207 -164 207 -405zM1092 558q0 160 -117 263q-111 98 -272 98q-159 0 -271.5 -103.5t-112.5 -257.5q0 -156 107 -265q111 -113 277 -113
q175 0 282 102t107 276zM855 1498l-160 -320h-140v320h300z" />
    <glyph glyph-name="ocircumflex" unicode="&#xf4;" 
d="M1379 558q0 -256 -207 -420q-193 -153 -457 -153q-265 0 -452 144q-208 160 -208 429q0 246 206 408q193 152 454 152t457 -155q207 -164 207 -405zM1104 558q0 160 -117 263q-111 98 -272 98q-159 0 -271.5 -103.5t-112.5 -257.5q0 -156 107 -265q111 -113 277 -113
q175 0 282 102t107 276zM1065 1175h-156l-181 158l-182 -158h-156l341 319z" />
    <glyph glyph-name="otilde" unicode="&#xf5;" 
d="M1140 1410q-6 -52 -51 -114q-50 -69 -107 -89q-38 -13 -78 -13q-29 0 -61.5 7t-68.5 19l-135 46q-40 13 -55 16q-30 7 -46 7q-32 0 -53.5 -14.5t-39.5 -56.5q-6 -14 -13 -40l-144 38q6 51 51 114q50 70 107 90q20 8 38.5 11t42.5 3q29 0 61 -7t66 -20l126 -47
q30 -11 56.5 -18.5t48.5 -7.5q31 0 55 16t42 59q6 14 13 40zM1367 558q0 -256 -207 -420q-193 -153 -457 -153q-265 0 -452 144q-208 160 -208 429q0 246 206 408q193 152 454 152t457 -155q207 -164 207 -405zM1092 558q0 160 -117 263q-111 98 -272 98
q-159 0 -271.5 -103.5t-112.5 -257.5q0 -156 107 -265q111 -113 277 -113q175 0 282 102t107 276z" />
    <glyph glyph-name="odieresis" unicode="&#xf6;" 
d="M1367 558q0 -256 -207 -420q-193 -153 -457 -153q-265 0 -452 144q-208 160 -208 429q0 246 206 408q193 152 454 152t457 -155q207 -164 207 -405zM1092 558q0 160 -117 263q-111 98 -272 98q-159 0 -271.5 -103.5t-112.5 -257.5q0 -156 107 -265q111 -113 277 -113
q175 0 282 102t107 276zM969 1287q0 -44 -31.5 -75.5t-76.5 -31.5q-44 0 -76 31t-32 76q0 44 32 76t76 32t76 -32t32 -76zM675 1287q0 -44 -31.5 -75.5t-76.5 -31.5q-44 0 -76 31t-32 76q0 44 32 76t76 32t76 -32t32 -76z" />
    <glyph glyph-name="divide" unicode="&#xf7;" horiz-adv-x="1022" 
d="M505 538q-47 0 -73.5 29.5t-26.5 70.5q0 42 25.5 71.5t74.5 29.5q48 0 76 -31q25 -28 25 -70q0 -41 -26 -70.5t-75 -29.5zM986 337h-943v107h941zM505 44q-47 0 -73.5 29.5t-26.5 70.5q0 42 25.5 71.5t74.5 29.5q48 0 76 -31q25 -28 25 -70q0 -41 -26.5 -70.5
t-74.5 -29.5z" />
    <glyph glyph-name="oslash" unicode="&#xf8;" 
d="M1367 558q0 -256 -207 -420q-193 -153 -457 -153q-124 0 -244 37l-33 -57h54v-20h-261v20h55l63 109q-135 73 -211 190q-83 128 -83 294q0 246 206 408q193 152 454 152q113 0 224 -34l36 62h-55v19h260v-19h-55l-65 -112q144 -74 228 -194q91 -129 91 -282zM1092 558
q0 92 -40.5 166.5t-111.5 123.5l-375 -644q63 -24 138 -24q175 0 282 102t107 276zM821 903q-54 16 -118 16q-159 0 -271.5 -103.5t-112.5 -257.5q0 -85 35 -160t98 -128z" />
    <glyph glyph-name="ugrave" unicode="&#xf9;" horiz-adv-x="1308" 
d="M1263 1087h-51v-647q0 -195 -173 -329q-162 -126 -369 -126q-220 0 -391 112q-191 125 -191 322v668h-48v17h357v-17h-50v-628q0 -115 99 -190q93 -71 220 -71q111 0 198 79q91 83 91 196v614h-50v17h358v-17zM815 1178h-140l-160 320h300v-320z" />
    <glyph glyph-name="uacute" unicode="&#xfa;" horiz-adv-x="1314" 
d="M1263 1087h-51v-647q0 -195 -173 -329q-162 -126 -369 -126q-220 0 -391 112q-191 125 -191 322v668h-48v17h357v-17h-50v-628q0 -115 99 -190q93 -71 220 -71q111 0 198 79q91 83 91 196v614h-50v17h358v-17zM844 1498l-160 -320h-140v320h300z" />
    <glyph glyph-name="ucircumflex" unicode="&#xfb;" horiz-adv-x="1296" 
d="M1260 1087h-51v-647q0 -195 -173 -329q-162 -126 -369 -126q-220 0 -391 112q-191 125 -191 322v668h-48v17h357v-17h-50v-628q0 -115 99 -190q93 -71 220 -71q111 0 198 79q91 83 91 196v614h-50v17h358v-17zM987 1175h-156l-181 158l-182 -158h-156l341 319z" />
    <glyph glyph-name="udieresis" unicode="&#xfc;" horiz-adv-x="1302" 
d="M1257 1087h-51v-647q0 -195 -173 -329q-162 -126 -369 -126q-220 0 -391 112q-191 125 -191 322v668h-48v17h357v-17h-50v-628q0 -115 99 -190q93 -71 220 -71q111 0 198 79q91 83 91 196v614h-50v17h358v-17zM897 1287q0 -44 -31.5 -75.5t-76.5 -31.5q-44 0 -76 31
t-32 76q0 44 32 76t76 32t76 -32t32 -76zM603 1287q0 -44 -31.5 -75.5t-76.5 -31.5q-44 0 -76 31t-32 76q0 44 32 76t76 32t76 -32t32 -76z" />
    <glyph glyph-name="ydieresis" unicode="&#xff;" horiz-adv-x="1289" 
d="M1259 1087h-50l-438 -662v-408h50v-17h-352v17h50v397l-443 673h-50v17h403v-17h-50l269 -433l283 433h-50v17h378v-17zM918 1287q0 -44 -31.5 -75.5t-76.5 -31.5q-44 0 -76 31t-32 76q0 44 32 76t76 32t76 -32t32 -76zM624 1287q0 -44 -31.5 -75.5t-76.5 -31.5
q-44 0 -76 31t-32 76q0 44 32 76t76 32t76 -32t32 -76z" />
    <glyph glyph-name="OE" unicode="&#x152;" horiz-adv-x="2220" 
d="M2173 842h-20v49h-775v-235h508v49h20v-276h-19v51h-511v-268h777v50h19v-311h-18v49h-1051v19h50v114q-194 -148 -450 -148q-265 0 -452 144q-208 160 -208 429q0 253 206 411q194 149 476 149q118 0 228.5 -39t199.5 -110v115h-50v20h1049v50h21v-312zM1092 558
q0 165 -112 266q-106 95 -264 95q-159 0 -276 -102q-121 -106 -121 -259q0 -150 117 -264t267 -114q169 0 279 107t110 271z" />
    <glyph glyph-name="oe" unicode="&#x153;" horiz-adv-x="2209" 
d="M2173 842h-20v49h-775v-235h508v49h20v-276h-19v51h-511v-268h777v50h19v-311h-18v49h-1051v19h50v114q-194 -148 -450 -148q-265 0 -452 144q-208 160 -208 429q0 253 206 411q194 149 476 149q118 0 228.5 -39t199.5 -110v115h-50v20h1049v50h21v-312zM1092 558
q0 165 -112 266q-106 95 -264 95q-159 0 -276 -102q-121 -106 -121 -259q0 -150 117 -264t267 -114q169 0 279 107t110 271z" />
    <glyph glyph-name="Ydieresis" unicode="&#x178;" horiz-adv-x="1308" 
d="M1268 1087h-50l-438 -662v-408h50v-17h-352v17h50v397l-443 673h-50v17h403v-17h-50l269 -433l283 433h-50v17h378v-17zM915 1287q0 -44 -31.5 -75.5t-76.5 -31.5q-44 0 -76 31t-32 76q0 44 32 76t76 32t76 -32t32 -76zM621 1287q0 -44 -31.5 -75.5t-76.5 -31.5
q-44 0 -76 31t-32 76q0 44 32 76t76 32t76 -32t32 -76z" />
    <glyph glyph-name="florin" unicode="&#x192;" horiz-adv-x="700" 
d="M663 1139q-21 -56 -81 -56q-14 0 -26 11q-21 18 -24 20q-7 4 -15 4q-33 0 -51 -171q-11 -108 -23 -155l-8 -31h152l-7 -63h-162l-93 -463q-19 -100 -46 -185q-39 -124 -87 -197q-62 -93 -133 -93q-20 0 -36.5 5t-29 21.5t-12.5 35.5q0 9 2 14q9 26 27 41.5t44 15.5
q20 0 32 -20.5t22 -23.5q32 -10 57 58q7 20 56 258l107 534h-168l4 64h188l8 41q34 166 84 270q65 137 148 137q26 0 49.5 -18.5t23.5 -40.5q0 -9 -2 -13z" />
    <glyph glyph-name="summation" unicode="&#x3a3;" horiz-adv-x="1117" 
d="M1088 162q-17 -52 -27 -89.5t-19 -91.5t-13 -87.5t-4 -73.5l-110 21h-885l548 604l-539 673l101 -9h838l2 -248h-33q0 45 -12.5 75.5t-43.5 58.5t-65 35.5t-88 7.5h-452l435 -525l-466 -523h622q31 0 53 8t50 29q74 57 74 135h34z" />
    <glyph glyph-name="Omega" unicode="&#x3a9;" horiz-adv-x="1161" 
d="M1129 -2h-454l22 224q108 49 163 145q52 91 52 218q0 158 -60 237q-77 101 -263 101q-174 0 -257 -100q-72 -86 -72 -238q0 -128 52.5 -220.5t162.5 -142.5l22 -224h-454v236h29q-2 -27 14 -54q13 -20 34 -29.5t47 -9.5h249v46q-148 26 -240 137t-92 263q0 179 144 283
q137 99 359 99q232 0 366 -100t134 -282q0 -151 -91.5 -262.5t-239.5 -137.5v-46h248q28 0 47.5 8.5t34 31t14.5 53.5h29v-236z" />
    <glyph glyph-name="pi" unicode="&#x3c0;" horiz-adv-x="922" 
d="M892 261l-4 -36q-13 -96 -68 -158q-59 -67 -146 -67q-77 0 -113 78q-30 64 -30 169q0 18 0.5 27.5t3.5 43.5l38 356h-193l-67 -525q-8 -60 -34 -105q-31 -53 -74 -53q-10 0 -22 3q-30 7 -45 18q-19 14 -23.5 33.5t-4.5 30.5q0 31 25 60q74 85 77 93q9 19 17.5 39t10.5 42
l39 357h-54q-20 0 -38.5 -0.5t-43 -10t-52.5 -42.5q-21 -25 -27 -43l-28 10l10 24q40 90 49 104q30 49 81 74.5t107 25.5h598v-135h-217l-22 -396q0 -55 29.5 -97.5t77.5 -42.5q40 0 66.5 26t37.5 69l7 28h32z" />
    <glyph glyph-name="endash" unicode="&#x2013;" horiz-adv-x="782" 
d="M744 428h-701v222h701v-222z" />
    <glyph glyph-name="emdash" unicode="&#x2014;" horiz-adv-x="1273" 
d="M1234 428h-1198v222h1198v-222z" />
    <glyph glyph-name="quoteleft" unicode="&#x2018;" horiz-adv-x="426" 
d="M365 727q0 -54 -36 -96q-42 -49 -109 -49q-75 0 -114 56t-39 170q0 112 47 188q39 63 106 97q23 12 52.5 18.5t50.5 6.5l7 -51q-17 0 -38.5 -8t-39.5 -21q-31 -22 -49 -48.5t-18 -52.5q0 -38 41 -57q25 -11 51 -22q35 -16 61.5 -52t26.5 -79z" />
    <glyph glyph-name="quoteright" unicode="&#x2019;" horiz-adv-x="414" 
d="M357 892q0 -112 -47 -188q-39 -63 -106 -97q-23 -12 -52.5 -18.5t-50.5 -6.5l-7 51q17 0 38.5 8t39.5 21q31 22 49 48.5t18 52.5q0 38 -41 57q-26 11 -51 22q-35 16 -60 50q-28 38 -28 81q0 54 36 96q42 49 109 49q75 0 114 -56t39 -170z" />
    <glyph glyph-name="quotesinglbase" unicode="&#x201a;" horiz-adv-x="414" 
d="M357 36q0 -112 -47 -188q-39 -63 -106 -97q-23 -12 -52.5 -18.5t-50.5 -6.5l-7 51q17 0 38.5 8t39.5 21q31 22 49 48.5t18 52.5q0 38 -41 57q-26 11 -51 22q-35 16 -60 50q-28 38 -28 81q0 54 36 96q42 49 109 49q75 0 114 -56t39 -170z" />
    <glyph glyph-name="quotedblleft" unicode="&#x201c;" horiz-adv-x="826" 
d="M767 727q0 -54 -36 -96q-42 -49 -109 -49q-75 0 -114 56t-39 170q0 112 47 188q39 63 106 97q23 12 52.5 18.5t50.5 6.5l7 -51q-17 0 -38.5 -8t-39.5 -21q-31 -22 -49 -48.5t-18 -52.5q0 -38 41 -57q25 -11 51 -22q35 -16 61.5 -52t26.5 -79zM365 727q0 -54 -36 -96
q-42 -49 -109 -49q-75 0 -114 56t-39 170q0 112 47 188q39 63 106 97q23 12 52.5 18.5t50.5 6.5l7 -51q-17 0 -38.5 -8t-39.5 -21q-31 -22 -49 -48.5t-18 -52.5q0 -38 41 -57q25 -11 51 -22q35 -16 61.5 -52t26.5 -79z" />
    <glyph glyph-name="quotedblright" unicode="&#x201d;" horiz-adv-x="826" 
d="M759 892q0 -112 -47 -188q-39 -63 -106 -97q-23 -12 -52.5 -18.5t-50.5 -6.5l-7 51q17 0 38.5 8t39.5 21q31 22 49 48.5t18 52.5q0 38 -41 57q-26 11 -51 22q-35 16 -60 50q-28 38 -28 81q0 54 36 96q42 49 109 49q75 0 114 -56t39 -170zM357 892q0 -112 -47 -188
q-39 -63 -106 -97q-23 -12 -52.5 -18.5t-50.5 -6.5l-7 51q17 0 38.5 8t39.5 21q31 22 49 48.5t18 52.5q0 38 -41 57q-26 11 -51 22q-35 16 -60 50q-28 38 -28 81q0 54 36 96q42 49 109 49q75 0 114 -56t39 -170z" />
    <glyph glyph-name="quotedblbase" unicode="&#x201e;" horiz-adv-x="826" 
d="M759 36q0 -112 -47 -188q-39 -63 -106 -97q-23 -12 -52.5 -18.5t-50.5 -6.5l-7 51q17 0 38.5 8t39.5 21q31 22 49 48.5t18 52.5q0 38 -41 57q-26 11 -51 22q-35 16 -60 50q-28 38 -28 81q0 54 36 96q42 49 109 49q75 0 114 -56t39 -170zM357 36q0 -112 -47 -188
q-39 -63 -106 -97q-23 -12 -52.5 -18.5t-50.5 -6.5l-7 51q17 0 38.5 8t39.5 21q31 22 49 48.5t18 52.5q0 38 -41 57q-26 11 -51 22q-35 16 -60 50q-28 38 -28 81q0 54 36 96q42 49 109 49q75 0 114 -56t39 -170z" />
    <glyph glyph-name="dagger" unicode="&#x2020;" horiz-adv-x="762" 
d="M722 617h-9q-36 4 -77.5 7.5t-60.5 3.5q-30 0 -67.5 1.5t-61.5 2.5h-9v-17v-275q0 -85 4 -175t7 -150l1 -19h-10h-60h-59h-12v19q5 84 8.5 178.5t3.5 146.5v275v17h-9q-1 0 -49.5 -1.5t-79.5 -2.5q-36 0 -74.5 -4t-64.5 -7h-8v6q1 8 2.5 25.5t1.5 30.5q0 12 -1.5 27
t-2.5 31v6h8q33 -4 71 -7.5t65 -3.5h129h10v22l-5 138q0 40 -4.5 91.5t-9.5 104.5l-1 16l10 -1q10 -1 31 -1.5t43 -0.5h29q25 0 37 2l11 1v-16q-6 -55 -11 -113t-5 -83l-4 -138v-22h9h130q44 0 78 4t57 7h9v-6q0 -2 -2 -23t-2 -35q0 -23 1 -34.5t3 -21.5v-6z" />
    <glyph glyph-name="bullet" unicode="&#x2022;" horiz-adv-x="485" 
d="M447 534q0 -85 -61 -145t-147 -60q-82 0 -140 60t-58 144q0 80 60.5 136.5t143.5 56.5q82 0 142 -56t60 -136z" />
    <glyph glyph-name="ellipsis" unicode="&#x2026;" horiz-adv-x="1548" 
d="M327 146q0 -60 -42 -102t-102 -42t-102 42t-42 102t42 102t102 42t102 -42t42 -102zM903 146q0 -60 -42 -102t-102 -42t-102 42t-42 102t42 102t102 42t102 -42t42 -102zM1473 146q0 -60 -42 -102t-102 -42t-102 42t-42 102t42 102t102 42t102 -42t42 -102z" />
    <glyph glyph-name="trademark" unicode="&#x2122;" horiz-adv-x="1261" 
d="M1227 1080h-10q-15 0 -31.5 -1.5t-21.5 -8.5q-11 -13 -11 -35v-409q0 -20 10 -31q6 -7 22.5 -9.5t21.5 -2.5l19 -2v-22h-13q-6 0 -45 2.5t-51 2.5q-27 0 -52.5 -2t-45.5 -3h-14v23l22 2q15 0 23.5 1.5t18 11.5t9.5 29v381l-214 -457h-17l-214 455v-379q0 -19 11 -31
q6 -7 22.5 -9.5t21.5 -2.5l18 -2v-22h-12q-6 0 -45.5 2.5t-51.5 2.5q-17 0 -34 -2t-31 -3h-14v23l23 2q9 0 20 1.5t20.5 11.5t9.5 29v409q0 14 -2 21q-2 5 -7 11.5t-21 9.5t-34 3h-9v24h14l52 -4q16 0 36 1t41 3h8l205 -435l81 166q40 79 53 106q20 40 43 93l22 56l5 14h11
q1 0 26 -2t41 -2q13 0 29 1t33 3h9v-24zM490 1106l-6 -129h-22l-7 51q0 15 -8 26q-8 8 -21 8l-124 2v-438q0 -19 9 -31q6 -7 22.5 -9.5t21.5 -2.5l18 -2v-22h-12q-7 0 -46 2.5t-50 2.5q-27 0 -52.5 -2t-45.5 -3h-14v23l23 2q9 0 20 1.5t20.5 11.5t9.5 29v438l-121 -4
q-12 0 -17.5 -5.5t-8.5 -20.5l-8 -57h-23l-5 128h13q4 0 82 -1.5t129 -2.5l208 4z" />
    <glyph glyph-name="partialdiff" unicode="&#x2202;" horiz-adv-x="749" 
d="M711 588q0 -226 -95 -409q-107 -206 -270 -206h-16q-6 1 -9 1q-134 12 -208 93t-74 203q0 133 86.5 232t214.5 99q55 0 101 -18q37 -15 91 -52l45 -33l12 77q7 42 7 94q0 154 -63 259q-72 121 -198 121q-37 0 -74 -12.5t-73 -25.5l-28 -8l-57 71l65 18q42 12 72.5 17.5
t69.5 5.5q182 0 296 -167q105 -153 105 -360zM565 442l-41 40q-25 24 -46 35.5t-45.5 16.5t-44.5 5q-73 0 -132 -64q-52 -57 -77 -146q-13 -46 -13 -98q0 -78 31 -133q35 -62 101 -82q21 -6 40 -6q81 0 138 106q45 83 67 209z" />
    <glyph glyph-name="Delta" unicode="&#x2206;" horiz-adv-x="1082" 
d="M1044 0h-1008l538 1130zM845 73l-334 789l-370 -789h704z" />
    <glyph glyph-name="product" unicode="&#x220f;" horiz-adv-x="1285" 
d="M1249 -163h-482v29l40 2q34 0 51.5 4t35.5 22q15 14 19.5 30t4.5 39q0 11 -0.5 20t-0.5 16v1019h-565v-1010q0 -43 7.5 -70.5t32.5 -47.5q19 -14 36.5 -17t53.5 -3h30v-33h-482v34h38q29 0 48 3.5t38 18.5t26 38.5t7 55.5v22v919q0 68 -49 111q-35 29 -74 33l-27 3v32
h1212v-35l-33 -1q-21 0 -37 -7t-36 -24q-30 -23 -40 -55t-10 -80v-909q0 -41 5.5 -62t27.5 -42q17 -15 38.5 -21.5t49.5 -6.5l35 -2v-25z" />
    <glyph glyph-name="radical" unicode="&#x221a;" horiz-adv-x="780" 
d="M754 1238l-213 -1310l-350 691l-132 -68l-22 46l204 97l281 -552l184 1102z" />
    <glyph glyph-name="infinity" unicode="&#x221e;" horiz-adv-x="1209" 
d="M1172 401q0 -110 -72 -181q-68 -67 -162 -67q-62 0 -128 27q-72 30 -131 84l-73 70l-74 -70q-58 -53 -128 -82t-131 -29q-93 0 -161 66q-73 71 -73 182q0 95 70.5 160.5t168.5 65.5q59 0 119 -27.5t117 -78.5l91 -82l92 82q58 51 117.5 78.5t119.5 27.5q97 0 167.5 -65.5
t70.5 -160.5zM1089 394q0 63 -47 105t-114 42q-47 0 -86 -19q-25 -12 -76 -50l-109 -82l102 -94q36 -35 75.5 -50t91.5 -15q72 0 118 43t46 106q-1 9 -1 14zM555 390l-109 82q-51 38 -76 50q-40 19 -87 19q-67 0 -114 -42t-47 -105q-1 -9 -1 -14q0 -63 46 -106t118 -43
q54 0 91.5 14t76.5 51z" />
    <glyph glyph-name="integral" unicode="&#x222b;" horiz-adv-x="418" 
d="M383 1221q-4 -25 -22.5 -40.5t-44.5 -15.5q-16 0 -36 16q-14 11 -21 14.5t-13 3.5q-13 0 -18 -19.5t-5 -56.5q0 -40 6 -109q14 -162 14 -197v-478q0 -105 -8 -187q-13 -128 -42 -197q-39 -92 -108 -92q-13 0 -34.5 6t-40.5 26.5t-16 44.5q2 24 18 40t40 16q19 0 35.5 -20
t27.5 -23q26 -7 35 30t9 109q0 42 -1.5 93.5t-2.5 83.5v664q0 198 41 285q35 74 100 74q36 0 63.5 -20t23.5 -51z" />
    <glyph glyph-name="approxequal" unicode="&#x2248;" horiz-adv-x="980" 
d="M953 594l-33 -39q-45 -51 -94 -74.5t-115 -23.5q-41 0 -84 13t-85 27l-138 38q-28 8 -57.5 16t-52.5 8q-7 0 -18 -1.5t-17 -2.5q-40 -7 -65.5 -22.5t-55.5 -47.5l-29 -29l-71 46l23 25q45 48 89 71.5t106 33.5q25 4 52 4q29 0 59 -6t72 -19l122 -38q46 -16 66 -22
q37 -12 65 -12q11 1 17 1q46 0 80.5 15t66.5 49l31 31zM953 325l-33 -37q-45 -52 -93.5 -75.5t-115.5 -23.5q-42 0 -84.5 13t-84.5 27l-138 39q-29 8 -58.5 16t-52.5 8q-7 0 -17.5 -1.5t-16.5 -2.5q-39 -8 -65.5 -23.5t-55.5 -46.5l-29 -30l-71 46l23 24q44 47 88.5 71.5
t106.5 34.5q11 2 25 3t25 1q31 0 61.5 -6.5t71.5 -19.5l122 -36q46 -16 66 -22q37 -12 65 -12q11 1 17 1q48 0 81 14t66 49l31 31z" />
    <glyph glyph-name="notequal" unicode="&#x2260;" horiz-adv-x="964" 
d="M924 276h-514l-152 -282l-82 48l128 234h-266v92h316l132 242h-450v90h500l154 288l84 -44l-134 -244h282v-90h-330l-132 -240h464v-94z" />
    <glyph glyph-name="lessequal" unicode="&#x2264;" horiz-adv-x="691" 
d="M662 149l-628 289v70l628 300v-78l-536 -261l536 -246v-74zM662 0h-628v66h628v-66z" />
    <glyph glyph-name="greaterequal" unicode="&#x2265;" horiz-adv-x="694" 
d="M658 438l-629 -289v74l535 246l-535 261v78l629 -300v-70zM658 0h-629v66h629v-66z" />
    <glyph glyph-name="lozenge" unicode="&#x25ca;" horiz-adv-x="746" 
d="M716 558l-288 -558h-95l-293 566l293 538h95zM629 558l-250 464l-250 -459l253 -493z" />
  </font>
</defs>
</svg>
